<svg width="73" height="49" viewBox="0 0 73 49" fill="none" xmlns="http://www.w3.org/2000/svg">
<circle cx="37" cy="15" r="15" fill="url(#paint0_linear_117_2)"/>
<path d="M37.7317 5.12109L32.9756 12.804L33.3414 18.6577H42.4878V12.804L37.7317 5.12109Z" fill="#BDBCBE"/>
<path d="M29.3171 24.1442V19.7539H45.4146V24.1442H29.3171Z" fill="#FFD706"/>
<path d="M45.4146 10.2422L36.6342 15.6456L37.3659 19.3885H45.4146V10.2422Z" fill="#E3E2E4"/>
<path d="M29.3171 9.87891V19.3911H42.8537L29.3171 9.87891Z" fill="white"/>
<path d="M7.24365 40.1797V48H5.49805L2.54395 42.9458V48H0.792969V40.1797H2.54395L5.50342 45.2339V40.1797H7.24365ZM13.8555 46.6465V48H9.69287V46.6465H13.8555ZM10.2891 40.1797V48H8.53809V40.1797H10.2891ZM13.3184 43.3271V44.6377H9.69287V43.3271H13.3184ZM13.8608 40.1797V41.5386H9.69287V40.1797H13.8608ZM16.5625 47.0225L18.1201 40.1797H19.0171L19.3716 41.0283L17.7119 48H16.729L16.5625 47.0225ZM15.9556 40.1797L17.2607 47.0547L17.0352 48H15.918L14.2207 40.1797H15.9556ZM20.4834 47.0171L21.7725 40.1797H23.502L21.8047 48H20.6982L20.4834 47.0171ZM19.6025 40.1797L21.1816 47.0601L20.999 48H20.0215L18.335 41.0229L18.7056 40.1797H19.6025ZM28.7979 40.1797V48H27.0469V40.1797H28.7979ZM31.8755 43.4775V44.8311H28.3091V43.4775H31.8755ZM32.2192 40.1797V41.5386H28.3091V40.1797H32.2192ZM38.3906 46.6465V48H34.228V46.6465H38.3906ZM34.8242 40.1797V48H33.0732V40.1797H34.8242ZM37.8535 43.3271V44.6377H34.228V43.3271H37.8535ZM38.396 40.1797V41.5386H34.228V40.1797H38.396ZM42.4995 41.6675L40.48 48H38.6108L41.5059 40.1797H42.6875L42.4995 41.6675ZM44.1753 48L42.1504 41.6675L41.9409 40.1797H43.1387L46.0444 48H44.1753ZM44.0894 45.0889V46.4424H40.0127V45.0889H44.0894ZM49.6807 40.1797V48H47.9351V40.1797H49.6807ZM52.0601 40.1797V41.5386H45.604V40.1797H52.0601ZM57.2056 40.1797H58.9565V45.3145C58.9565 45.9232 58.8276 46.4352 58.5698 46.8506C58.3156 47.266 57.9611 47.5793 57.5063 47.7905C57.0516 48.0018 56.5252 48.1074 55.9272 48.1074C55.3257 48.1074 54.7957 48.0018 54.3374 47.7905C53.8826 47.5793 53.5246 47.266 53.2632 46.8506C53.0054 46.4352 52.8765 45.9232 52.8765 45.3145V40.1797H54.6328V45.3145C54.6328 45.651 54.6829 45.9268 54.7832 46.1416C54.887 46.3529 55.0356 46.5086 55.229 46.6089C55.4224 46.7056 55.6551 46.7539 55.9272 46.7539C56.1994 46.7539 56.4303 46.7056 56.6201 46.6089C56.8135 46.5086 56.9585 46.3529 57.0552 46.1416C57.1554 45.9268 57.2056 45.651 57.2056 45.3145V40.1797ZM60.208 40.1797H63.2104C63.8084 40.1797 64.3258 40.2692 64.7627 40.4482C65.2031 40.6273 65.5415 40.8923 65.7778 41.2432C66.0142 41.5941 66.1323 42.0273 66.1323 42.543C66.1323 42.9727 66.0625 43.3379 65.9229 43.6387C65.7832 43.9395 65.5863 44.1883 65.332 44.3853C65.0814 44.5822 64.7878 44.7415 64.4512 44.8633L63.8818 45.1748H61.3252L61.3145 43.8159H63.2158C63.4772 43.8159 63.6938 43.7694 63.8657 43.6763C64.0376 43.5832 64.1665 43.4525 64.2524 43.2842C64.342 43.1123 64.3867 42.9118 64.3867 42.6826C64.3867 42.4463 64.342 42.2422 64.2524 42.0703C64.1629 41.8984 64.0304 41.7677 63.855 41.6782C63.6831 41.5851 63.4683 41.5386 63.2104 41.5386H61.959V48H60.208V40.1797ZM64.5371 48L62.7808 44.5249L64.6284 44.5195L66.4116 47.9194V48H64.5371ZM72.6367 46.6465V48H68.4741V46.6465H72.6367ZM69.0703 40.1797V48H67.3193V40.1797H69.0703ZM72.0996 43.3271V44.6377H68.4741V43.3271H72.0996ZM72.6421 40.1797V41.5386H68.4741V40.1797H72.6421Z" fill="url(#paint1_linear_117_2)"/>
<defs>
<linearGradient id="paint0_linear_117_2" x1="48.3415" y1="-6.61112e-07" x2="36.5626" y2="34.0278" gradientUnits="userSpaceOnUse">
<stop stop-color="#7E53C8"/>
<stop offset="0.40472" stop-color="#C55FFC"/>
<stop offset="0.871676" stop-color="#FA00FF"/>
</linearGradient>
<linearGradient id="paint1_linear_117_2" x1="91.1986" y1="44" x2="-9.91095" y2="44" gradientUnits="userSpaceOnUse">
<stop stop-color="#FA00FF"/>
<stop offset="1" stop-color="#FFD706"/>
</linearGradient>
</defs>
</svg>

