<svg width="22" height="26" viewBox="0 0 22 26" fill="none" xmlns="http://www.w3.org/2000/svg">
<path d="M20.5 12.0377C20.5 17.9876 16.1223 22.5754 11 22.5754C5.8777 22.5754 1.5 17.9876 1.5 12.0377C1.5 6.08775 5.8777 1.5 11 1.5C16.1223 1.5 20.5 6.08775 20.5 12.0377Z" stroke="white" stroke-width="3"/>
<path d="M12.2744 9.41492V18.9247H9.73438V9.41492H12.2744ZM9.57617 6.9364C9.57617 6.56726 9.70508 6.26257 9.96289 6.02234C10.2207 5.7821 10.5664 5.66199 11 5.66199C11.4277 5.66199 11.7705 5.7821 12.0283 6.02234C12.292 6.26257 12.4238 6.56726 12.4238 6.9364C12.4238 7.30554 12.292 7.61023 12.0283 7.85046C11.7705 8.0907 11.4277 8.21082 11 8.21082C10.5664 8.21082 10.2207 8.0907 9.96289 7.85046C9.70508 7.61023 9.57617 7.30554 9.57617 6.9364Z" fill="white"/>
</svg>
