<svg width="242" height="53" viewBox="0 0 242 53" fill="none" xmlns="http://www.w3.org/2000/svg">
<path d="M52.5935 36.9053C52.5935 36.8499 52.6 36.7913 52.613 36.7295C52.6293 36.6676 52.6456 36.6107 52.6619 36.5586L52.7058 36.4023L52.5935 30.5625C52.5935 30.403 52.6114 30.2793 52.6472 30.1914C52.6863 30.1035 52.7351 30.0384 52.7937 29.9961C52.8523 29.9538 52.919 29.9294 52.9939 29.9229C53.072 29.9163 53.1501 29.9131 53.2283 29.9131H55.8015C55.8601 29.9066 55.9252 29.8984 55.9968 29.8887C56.0717 29.8757 56.1238 29.8691 56.1531 29.8691C56.2768 29.8691 56.3761 29.8805 56.4509 29.9033C56.5291 29.9261 56.5893 29.9603 56.6316 30.0059C56.6772 30.0482 56.7065 30.1019 56.7195 30.167C56.7358 30.2321 56.7439 30.3086 56.7439 30.3965C56.7439 30.5202 56.7276 30.6195 56.6951 30.6943C56.6658 30.7692 56.6235 30.8278 56.5681 30.8701C56.516 30.9092 56.4542 30.9352 56.3826 30.9482C56.311 30.9613 56.2345 30.9678 56.1531 30.9678C56.1173 30.9678 56.0701 30.9678 56.0115 30.9678C55.9529 30.9645 55.891 30.9596 55.8259 30.9531C55.5102 30.9531 55.2546 30.9531 55.0593 30.9531C54.8673 30.9531 54.7126 30.9548 54.5955 30.958C54.4815 30.958 54.3936 30.958 54.3318 30.958C54.2732 30.958 54.2211 30.958 54.1755 30.958H53.7214V32.5059C53.741 32.5059 53.7638 32.5075 53.7898 32.5107C53.8191 32.5107 53.863 32.5107 53.9216 32.5107C53.9802 32.5107 54.06 32.5107 54.1609 32.5107C54.2651 32.5107 54.4034 32.5107 54.5759 32.5107C54.7485 32.5107 54.9617 32.5107 55.2156 32.5107C55.4695 32.5107 55.7771 32.5107 56.1384 32.5107C56.1742 32.5107 56.2149 32.5091 56.2605 32.5059C56.3061 32.5026 56.3516 32.4977 56.3972 32.4912C56.4558 32.4847 56.5242 32.4782 56.6023 32.4717C56.6804 32.4652 56.7651 32.4619 56.8562 32.4619C56.9441 32.4619 57.0222 32.4798 57.0906 32.5156C57.1589 32.5514 57.2159 32.597 57.2615 32.6523C57.3103 32.7044 57.3461 32.7614 57.3689 32.8232C57.3949 32.8851 57.408 32.9437 57.408 32.999C57.408 33.1748 57.3494 33.3034 57.2322 33.3848C57.1182 33.4661 56.9701 33.5068 56.7878 33.5068L53.7214 33.5117V36.4365C54.0437 36.4365 54.3676 36.4414 54.6931 36.4512C55.0186 36.4609 55.3588 36.4658 55.7136 36.4658C55.8113 36.4658 55.9008 36.4609 55.9822 36.4512C56.0636 36.4414 56.1417 36.43 56.2166 36.417C56.2849 36.4072 56.3533 36.3991 56.4216 36.3926C56.4932 36.3828 56.5714 36.3779 56.656 36.3779C56.7537 36.3779 56.8432 36.3861 56.9246 36.4023C57.0092 36.4154 57.0824 36.4414 57.1443 36.4805C57.2061 36.5163 57.255 36.5667 57.2908 36.6318C57.3266 36.6937 57.3445 36.7734 57.3445 36.8711C57.3445 37.0143 57.3201 37.125 57.2712 37.2031C57.2224 37.2812 57.1557 37.3398 57.071 37.3789C56.9897 37.4147 56.8953 37.4375 56.7878 37.4473C56.6837 37.4538 56.5746 37.457 56.4607 37.457H53.1746C53.0899 37.457 53.0118 37.4473 52.9402 37.4277C52.8718 37.4082 52.8116 37.3773 52.7595 37.335C52.7074 37.2894 52.6667 37.2324 52.6375 37.1641C52.6082 37.0924 52.5935 37.0062 52.5935 36.9053ZM59.2 36.8857C59.2 36.736 59.2065 36.5895 59.2195 36.4463C59.2325 36.3031 59.239 36.1354 59.239 35.9434C59.239 35.0775 59.2358 34.21 59.2292 33.3408C59.226 32.4717 59.2113 31.5928 59.1853 30.7041C59.1495 30.6357 59.1169 30.5609 59.0876 30.4795C59.0616 30.3981 59.0486 30.3281 59.0486 30.2695C59.0486 30.1296 59.086 30.0124 59.1609 29.918C59.239 29.8203 59.3708 29.7715 59.5564 29.7715C59.6508 29.7715 59.7436 29.7845 59.8347 29.8105C59.9259 29.8333 60.0235 29.8447 60.1277 29.8447C60.3556 29.8447 60.5818 29.8333 60.8064 29.8105C61.031 29.7845 61.2605 29.7715 61.4949 29.7715C61.9734 29.7715 62.4014 29.8187 62.7791 29.9131C63.1599 30.0042 63.4936 30.1328 63.78 30.2988C64.0665 30.4616 64.3106 30.6569 64.5125 30.8848C64.7143 31.1094 64.877 31.3568 65.0007 31.627C65.1277 31.8939 65.2205 32.1787 65.2791 32.4814C65.3376 32.7809 65.3669 33.0853 65.3669 33.3945C65.3669 33.6712 65.3376 33.9674 65.2791 34.2832C65.2237 34.5957 65.1309 34.9066 65.0007 35.2158C64.8705 35.5218 64.7013 35.8164 64.4929 36.0996C64.2846 36.3796 64.0274 36.627 63.7214 36.8418C63.4154 37.0566 63.0574 37.2292 62.6472 37.3594C62.2403 37.4863 61.7732 37.5498 61.2458 37.5498C61.1222 37.5498 60.9985 37.5433 60.8748 37.5303C60.7543 37.5205 60.6322 37.5075 60.5085 37.4912C60.3848 37.4782 60.2595 37.4668 60.1326 37.457C60.0089 37.444 59.8819 37.4375 59.7517 37.4375C59.5531 37.4375 59.4115 37.3919 59.3269 37.3008C59.2423 37.2096 59.2 37.0713 59.2 36.8857ZM60.2888 36.3828C60.3572 36.4023 60.4386 36.4186 60.533 36.4316C60.6306 36.4414 60.7283 36.4495 60.8259 36.4561C60.9236 36.4626 61.0147 36.4674 61.0994 36.4707C61.1873 36.4707 61.2556 36.4707 61.3044 36.4707C61.7081 36.4707 62.0613 36.4202 62.364 36.3193C62.6667 36.2184 62.9255 36.0866 63.1404 35.9238C63.3585 35.7611 63.5391 35.5771 63.6824 35.3721C63.8256 35.167 63.9379 34.9603 64.0193 34.752C64.1039 34.5436 64.1625 34.3434 64.1951 34.1514C64.2276 33.9593 64.2439 33.7949 64.2439 33.6582C64.2439 33.1178 64.1788 32.6686 64.0486 32.3105C63.9216 31.9492 63.7328 31.6611 63.4822 31.4463C63.2348 31.2314 62.9288 31.0801 62.5642 30.9922C62.2029 30.9043 61.7862 30.8604 61.3142 30.8604C61.2524 30.8604 61.1759 30.862 61.0847 30.8652C60.9968 30.8685 60.9041 30.8717 60.8064 30.875C60.7087 30.8783 60.6111 30.8831 60.5134 30.8896C60.419 30.8962 60.3344 30.901 60.2595 30.9043L60.2888 36.3828ZM68.2234 31.0117C67.9955 31.0117 67.7595 31.0133 67.5154 31.0166C67.2712 31.0199 67.0043 31.0215 66.7146 31.0215C66.6365 31.0215 66.5681 31.0036 66.5095 30.9678C66.4509 30.932 66.4021 30.8864 66.363 30.8311C66.324 30.7725 66.2947 30.7074 66.2751 30.6357C66.2556 30.5641 66.2458 30.4925 66.2458 30.4209C66.2458 30.2288 66.2996 30.097 66.407 30.0254C66.5144 29.9505 66.6886 29.9131 66.9294 29.9131H70.8259C70.891 29.9131 70.9578 29.9212 71.0261 29.9375C71.0977 29.9538 71.1612 29.9831 71.2166 30.0254C71.2751 30.0677 71.3223 30.123 71.3582 30.1914C71.3972 30.2598 71.4167 30.3477 71.4167 30.4551C71.4167 30.5332 71.4037 30.6081 71.3777 30.6797C71.3516 30.7513 71.3158 30.8132 71.2703 30.8652C71.2279 30.9173 71.1759 30.9596 71.114 30.9922C71.0554 31.0247 70.9919 31.041 70.9236 31.041C70.8715 31.041 70.821 31.0361 70.7722 31.0264C70.7234 31.0166 70.6713 31.0117 70.616 31.0117H69.3562L69.3416 36.5195C69.3416 36.5977 69.3464 36.6742 69.3562 36.749C69.3692 36.8239 69.3757 36.9053 69.3757 36.9932C69.3757 37.0648 69.3692 37.1364 69.3562 37.208C69.3432 37.2796 69.3155 37.3447 69.2732 37.4033C69.2309 37.4619 69.1707 37.5091 69.0925 37.5449C69.0144 37.584 68.9119 37.6035 68.7849 37.6035C68.6352 37.6035 68.5212 37.5775 68.4431 37.5254C68.365 37.4766 68.308 37.4131 68.2722 37.335C68.2397 37.2568 68.2218 37.1706 68.2185 37.0762C68.2153 36.9818 68.2136 36.8906 68.2136 36.8027L68.2234 31.0117ZM72.3103 33.6826C72.3103 33.1032 72.3917 32.5742 72.5544 32.0957C72.7205 31.6172 72.9532 31.2054 73.2527 30.8604C73.5554 30.5153 73.9184 30.2484 74.3416 30.0596C74.768 29.8675 75.24 29.7715 75.7576 29.7715C76.3044 29.7715 76.7862 29.8675 77.2029 30.0596C77.6228 30.2484 77.9744 30.5153 78.2576 30.8604C78.544 31.2054 78.7605 31.6172 78.907 32.0957C79.0535 32.5742 79.1267 33.1032 79.1267 33.6826C79.1267 34.2327 79.047 34.7471 78.8875 35.2256C78.7279 35.7008 78.5001 36.1143 78.2039 36.4658C77.9076 36.8174 77.5496 37.0941 77.1296 37.2959C76.7097 37.4977 76.2393 37.5986 75.7185 37.5986C75.3735 37.5986 75.0496 37.5531 74.7468 37.4619C74.4441 37.3708 74.1658 37.2406 73.9119 37.0713C73.6612 36.902 73.4366 36.7002 73.238 36.4658C73.0395 36.2282 72.8702 35.9645 72.7302 35.6748C72.5935 35.3851 72.4893 35.0726 72.4177 34.7373C72.3461 34.402 72.3103 34.0505 72.3103 33.6826ZM73.4236 33.6826C73.4236 33.9268 73.4464 34.1693 73.4919 34.4102C73.5375 34.6478 73.6042 34.8757 73.6921 35.0938C73.7833 35.3086 73.894 35.5088 74.0242 35.6943C74.1576 35.8766 74.309 36.0361 74.4783 36.1729C74.6508 36.3063 74.8412 36.4121 75.0496 36.4902C75.2611 36.5651 75.489 36.6025 75.7332 36.6025C75.9903 36.6025 76.2247 36.5651 76.4363 36.4902C76.6479 36.4121 76.8383 36.3063 77.0076 36.1729C77.1768 36.0361 77.3233 35.8766 77.447 35.6943C77.574 35.5088 77.6781 35.3086 77.7595 35.0938C77.8442 34.8757 77.906 34.6478 77.9451 34.4102C77.9874 34.1693 78.0085 33.9268 78.0085 33.6826C78.0085 33.292 77.963 32.9225 77.8718 32.5742C77.7807 32.2227 77.6407 31.9134 77.4519 31.6465C77.2664 31.3796 77.0304 31.168 76.7439 31.0117C76.4607 30.8555 76.1238 30.7773 75.7332 30.7773C75.3653 30.7773 75.0382 30.8473 74.7517 30.9873C74.4653 31.1273 74.2227 31.3242 74.0242 31.5781C73.8289 31.832 73.6791 32.138 73.575 32.4961C73.474 32.8509 73.4236 33.2464 73.4236 33.6826ZM80.7527 33.8682C80.7494 33.3506 80.7494 32.8314 80.7527 32.3105C80.7592 31.7865 80.7625 31.238 80.7625 30.665C80.7625 30.5283 80.769 30.4046 80.782 30.2939C80.7983 30.1833 80.8259 30.0889 80.865 30.0107C80.9041 29.9326 80.9561 29.874 81.0212 29.835C81.0896 29.7926 81.1759 29.7715 81.28 29.7715C81.5177 29.7715 81.6853 29.8415 81.783 29.9814C81.8806 30.1182 81.9294 30.3053 81.9294 30.543C81.9294 30.6113 81.9278 30.6846 81.9246 30.7627C81.9213 30.8408 81.9181 30.9336 81.9148 31.041C81.9115 31.1484 81.9067 31.2786 81.9001 31.4316C81.8969 31.5846 81.8936 31.7686 81.8904 31.9834C81.8871 32.1982 81.8839 32.4521 81.8806 32.7451C81.8774 33.0381 81.8757 33.3799 81.8757 33.7705C81.8757 34.0049 81.8822 34.2376 81.8953 34.4688C81.9115 34.6966 81.9408 34.9147 81.9832 35.123C82.0287 35.3281 82.0922 35.5186 82.1736 35.6943C82.255 35.8701 82.3591 36.0231 82.4861 36.1533C82.6163 36.2803 82.7742 36.3796 82.9597 36.4512C83.1485 36.5228 83.3715 36.5586 83.6287 36.5586C83.9249 36.5586 84.1755 36.4984 84.3806 36.3779C84.5857 36.2575 84.7517 36.0817 84.8787 35.8506C85.0089 35.6195 85.1016 35.3346 85.157 34.9961C85.2156 34.6543 85.2449 34.2637 85.2449 33.8242C85.2449 33.0332 85.2384 32.3643 85.2253 31.8174C85.2123 31.2705 85.2026 30.875 85.196 30.6309C85.1928 30.582 85.1912 30.5316 85.1912 30.4795C85.1912 30.4274 85.1912 30.3965 85.1912 30.3867C85.1912 30.1556 85.2416 29.9961 85.3425 29.9082C85.4467 29.8171 85.585 29.7715 85.7576 29.7715C85.8682 29.7715 85.961 29.7878 86.0359 29.8203C86.114 29.8529 86.1759 29.8952 86.2214 29.9473C86.267 29.9993 86.2996 30.0579 86.3191 30.123C86.3386 30.1882 86.3484 30.2516 86.3484 30.3135C86.3484 30.4209 86.3435 30.5316 86.3337 30.6455C86.3272 30.7562 86.324 30.8717 86.324 30.9922C86.324 31.2526 86.3256 31.4935 86.3289 31.7148C86.3321 31.9362 86.337 32.1478 86.3435 32.3496C86.3435 32.584 86.3468 32.8216 86.3533 33.0625C86.3598 33.3001 86.363 33.5573 86.363 33.834C86.363 34.4297 86.3061 34.9619 86.1921 35.4307C86.0815 35.8962 85.9106 36.29 85.6794 36.6123C85.4483 36.9346 85.157 37.1803 84.8054 37.3496C84.4571 37.5189 84.047 37.6035 83.575 37.6035C83.3373 37.6035 83.1029 37.5807 82.8718 37.5352C82.6407 37.4928 82.421 37.418 82.2126 37.3105C82.0043 37.2031 81.8106 37.0583 81.6316 36.876C81.4558 36.6937 81.3028 36.4642 81.1726 36.1875C81.0424 35.9108 80.9399 35.582 80.865 35.2012C80.7901 34.8203 80.7527 34.376 80.7527 33.8682ZM88.2917 36.915C88.2917 36.8434 88.295 36.7734 88.3015 36.7051C88.308 36.6367 88.3145 36.5732 88.321 36.5146C88.321 36.0622 88.321 35.6455 88.321 35.2646C88.321 34.8838 88.321 34.529 88.321 34.2002C88.321 33.8682 88.321 33.5573 88.321 33.2676C88.321 32.9779 88.321 32.6979 88.321 32.4277C88.321 32.1543 88.321 31.8874 88.321 31.627C88.3243 31.3633 88.3259 31.0947 88.3259 30.8213C88.3097 30.7757 88.2934 30.7122 88.2771 30.6309C88.2641 30.5495 88.2576 30.473 88.2576 30.4014C88.2576 30.333 88.2673 30.2646 88.2869 30.1963C88.3097 30.1279 88.3422 30.0677 88.3845 30.0156C88.4301 29.9603 88.4854 29.9163 88.5505 29.8838C88.6156 29.8512 88.6905 29.835 88.7751 29.835C88.9119 29.835 89.0502 29.8431 89.1902 29.8594C89.3302 29.8757 89.488 29.8838 89.6638 29.8838C89.8103 29.8838 89.9568 29.8773 90.1033 29.8643C90.2498 29.848 90.406 29.8382 90.572 29.835C91.0636 29.835 91.5079 29.8838 91.905 29.9814C92.3054 30.0791 92.6456 30.2305 92.9255 30.4355C93.2087 30.6406 93.4268 30.9027 93.5798 31.2217C93.7328 31.5374 93.8093 31.915 93.8093 32.3545C93.8093 32.7712 93.7507 33.1423 93.6335 33.4678C93.5196 33.79 93.3715 34.0716 93.1892 34.3125C93.0102 34.5534 92.8083 34.7552 92.5837 34.918C92.3624 35.0775 92.1459 35.1995 91.9343 35.2842C91.9636 35.46 92.0092 35.626 92.071 35.7822C92.1361 35.9352 92.2175 36.0703 92.3152 36.1875C92.4161 36.3047 92.5333 36.3975 92.6667 36.4658C92.8002 36.5342 92.95 36.5684 93.116 36.5684C93.2397 36.5684 93.352 36.5488 93.4529 36.5098C93.557 36.4707 93.6466 36.3942 93.7214 36.2803C93.767 36.2152 93.8223 36.1582 93.8875 36.1094C93.9526 36.0573 94.0356 36.0312 94.1365 36.0312C94.3123 36.0312 94.449 36.0801 94.5466 36.1777C94.6443 36.2754 94.6931 36.3991 94.6931 36.5488C94.6931 36.6888 94.6524 36.8223 94.571 36.9492C94.4929 37.0762 94.3806 37.1885 94.2341 37.2861C94.0909 37.3805 93.9167 37.4554 93.7117 37.5107C93.5066 37.5693 93.2787 37.5986 93.0281 37.5986C92.797 37.5986 92.587 37.5645 92.3982 37.4961C92.2126 37.431 92.045 37.3431 91.8953 37.2324C91.7488 37.1185 91.6186 36.9899 91.5046 36.8467C91.3907 36.7002 91.2931 36.5488 91.2117 36.3926C91.1303 36.2331 91.0636 36.0752 91.0115 35.9189C90.9594 35.7627 90.9187 35.6162 90.8894 35.4795C90.8503 35.4795 90.7983 35.4795 90.7332 35.4795C90.6681 35.4795 90.6013 35.4795 90.533 35.4795C90.4646 35.4795 90.3962 35.4795 90.3279 35.4795C90.2628 35.4762 90.2091 35.4746 90.1667 35.4746C90.0723 35.4714 89.9552 35.4697 89.8152 35.4697C89.6785 35.4665 89.5531 35.4648 89.4392 35.4648V36.1777C89.4457 36.3307 89.4653 36.4805 89.4978 36.627C89.5304 36.7702 89.5466 36.9183 89.5466 37.0713C89.5466 37.1657 89.5271 37.2454 89.488 37.3105C89.4522 37.3757 89.405 37.4294 89.3464 37.4717C89.2878 37.5173 89.2244 37.5498 89.156 37.5693C89.0876 37.5889 89.0225 37.5986 88.9607 37.5986C88.863 37.5986 88.7735 37.5807 88.6921 37.5449C88.6108 37.5124 88.5408 37.4668 88.4822 37.4082C88.4236 37.3464 88.3764 37.2747 88.3406 37.1934C88.308 37.1087 88.2917 37.016 88.2917 36.915ZM89.4343 34.415C89.519 34.4183 89.6182 34.4215 89.7322 34.4248C89.8461 34.4281 89.9552 34.4313 90.0593 34.4346C90.1635 34.4378 90.2563 34.4411 90.3376 34.4443C90.419 34.4443 90.4711 34.4443 90.4939 34.4443C90.9333 34.4443 91.2931 34.3841 91.573 34.2637C91.8562 34.1432 92.0776 33.9837 92.2371 33.7852C92.3966 33.5866 92.5056 33.3587 92.5642 33.1016C92.6261 32.8444 92.657 32.5807 92.657 32.3105C92.657 32.0729 92.6195 31.8727 92.5447 31.71C92.4698 31.5439 92.3705 31.4072 92.2468 31.2998C92.1231 31.1924 91.9832 31.1077 91.8269 31.0459C91.6707 30.984 91.5111 30.9385 91.3484 30.9092C91.1889 30.8799 91.031 30.862 90.8748 30.8555C90.7218 30.849 90.5867 30.8457 90.4695 30.8457C90.3035 30.8457 90.1342 30.849 89.9617 30.8555C89.7924 30.8587 89.6085 30.862 89.4099 30.8652C89.4034 30.9889 89.3985 31.1012 89.3953 31.2021C89.3953 31.3031 89.3936 31.4023 89.3904 31.5C89.3904 31.5944 89.3904 31.6921 89.3904 31.793C89.3904 31.8906 89.3904 32.0013 89.3904 32.125C89.3904 32.3464 89.3904 32.5531 89.3904 32.7451C89.3936 32.9339 89.3969 33.1195 89.4001 33.3018C89.4034 33.4808 89.4067 33.6615 89.4099 33.8438C89.4164 34.026 89.4246 34.2165 89.4343 34.415ZM91.7244 35.3525C91.7211 35.3525 91.7195 35.3542 91.7195 35.3574L91.7244 35.3525ZM91.7146 35.3574H91.7195H91.7146ZM95.7185 35.7041C95.7348 35.4404 95.7885 35.2402 95.8796 35.1035C95.974 34.9635 96.1384 34.8936 96.3728 34.8936C96.5193 34.8936 96.6446 34.9359 96.7488 35.0205C96.8529 35.1019 96.905 35.2158 96.905 35.3623C96.905 35.4469 96.8969 35.5316 96.8806 35.6162C96.8643 35.7008 96.8595 35.7887 96.866 35.8799C96.879 35.9906 96.9278 36.0915 97.0125 36.1826C97.0971 36.2738 97.2045 36.3535 97.3347 36.4219C97.4649 36.487 97.613 36.5391 97.7791 36.5781C97.9451 36.6139 98.1143 36.6318 98.2869 36.6318C98.4626 36.6318 98.6368 36.6172 98.8093 36.5879C98.9851 36.5553 99.143 36.4967 99.283 36.4121C99.4262 36.3275 99.5417 36.2119 99.6296 36.0654C99.7175 35.9189 99.7615 35.7285 99.7615 35.4941C99.7615 35.3411 99.724 35.1979 99.6492 35.0645C99.5743 34.9277 99.4783 34.804 99.3611 34.6934C99.2439 34.5794 99.1137 34.4769 98.9705 34.3857C98.8305 34.2946 98.6954 34.2148 98.5652 34.1465C98.3796 34.0521 98.1892 33.9609 97.9939 33.873C97.8018 33.7819 97.613 33.6875 97.4275 33.5898C97.2452 33.4889 97.071 33.3799 96.905 33.2627C96.7423 33.1423 96.599 33.0023 96.4753 32.8428C96.3516 32.6833 96.254 32.4993 96.1824 32.291C96.1108 32.0794 96.075 31.8353 96.075 31.5586C96.075 31.2493 96.1401 30.9824 96.2703 30.7578C96.4037 30.5332 96.5779 30.3477 96.7927 30.2012C97.0076 30.0547 97.2533 29.9473 97.53 29.8789C97.81 29.8073 98.0964 29.7715 98.3894 29.7715C98.6498 29.7715 98.9021 29.7943 99.1462 29.8398C99.3904 29.8854 99.6085 29.9603 99.8005 30.0645C99.9926 30.1654 100.152 30.3021 100.279 30.4746C100.406 30.6439 100.483 30.8522 100.509 31.0996C100.515 31.1908 100.504 31.2721 100.474 31.3438C100.445 31.4121 100.404 31.4707 100.352 31.5195C100.3 31.5651 100.24 31.6009 100.172 31.627C100.107 31.6497 100.04 31.6611 99.9714 31.6611C99.8673 31.6611 99.7794 31.6449 99.7078 31.6123C99.6361 31.5798 99.5776 31.5391 99.532 31.4902C99.4864 31.4414 99.4522 31.3861 99.4294 31.3242C99.4067 31.2624 99.392 31.2021 99.3855 31.1436C99.3367 31.0654 99.2732 31.002 99.1951 30.9531C99.1169 30.901 99.0291 30.8604 98.9314 30.8311C98.837 30.7985 98.7377 30.7773 98.6335 30.7676C98.5294 30.7546 98.4285 30.748 98.3308 30.748C98.1941 30.748 98.0574 30.7627 97.9207 30.792C97.7872 30.8213 97.6651 30.8685 97.5544 30.9336C97.4438 30.9987 97.3542 31.0817 97.2859 31.1826C97.2175 31.2835 97.1833 31.4072 97.1833 31.5537C97.1833 31.7262 97.224 31.8792 97.3054 32.0127C97.3868 32.1462 97.4893 32.265 97.613 32.3691C97.7367 32.4733 97.8735 32.5677 98.0232 32.6523C98.1762 32.737 98.3243 32.8151 98.4675 32.8867C98.6401 32.9746 98.8191 33.069 99.0046 33.1699C99.1902 33.2676 99.3708 33.375 99.5466 33.4922C99.7257 33.6061 99.8949 33.7314 100.054 33.8682C100.214 34.0049 100.354 34.1579 100.474 34.3271C100.595 34.4932 100.689 34.6755 100.758 34.874C100.829 35.0726 100.865 35.2923 100.865 35.5332C100.865 35.7904 100.829 36.0199 100.758 36.2217C100.686 36.4235 100.588 36.6009 100.465 36.7539C100.341 36.9069 100.196 37.0371 100.03 37.1445C99.864 37.252 99.685 37.3398 99.4929 37.4082C99.3009 37.4766 99.1007 37.5254 98.8923 37.5547C98.6873 37.5872 98.4822 37.6035 98.2771 37.6035C98.1046 37.6035 97.919 37.5889 97.7205 37.5596C97.5251 37.5303 97.3315 37.4847 97.1394 37.4229C96.9473 37.3577 96.7634 37.2764 96.5876 37.1787C96.4151 37.0778 96.2621 36.9574 96.1287 36.8174C95.9985 36.6742 95.8959 36.5114 95.821 36.3291C95.7462 36.1436 95.712 35.9352 95.7185 35.7041Z" fill="#7E53C8"/>
<path d="M56.3777 24.1445C56.3777 24.0078 56.3875 23.8923 56.407 23.7979C56.4265 23.7035 56.4379 23.6595 56.4412 23.666C56.4477 23.3112 56.4526 22.9515 56.4558 22.5869C56.4623 22.2223 56.4656 21.8366 56.4656 21.4297C56.4656 21.1725 56.4656 20.8942 56.4656 20.5947C56.4656 20.292 56.4623 19.9876 56.4558 19.6816C56.4526 19.3724 56.446 19.0697 56.4363 18.7734C56.4265 18.474 56.4135 18.1973 56.3972 17.9434C56.3842 17.8685 56.3744 17.8018 56.3679 17.7432C56.3614 17.6813 56.3582 17.6162 56.3582 17.5479C56.3582 17.3883 56.3923 17.263 56.4607 17.1719C56.5291 17.0775 56.6397 17.0124 56.7927 16.9766C56.8578 16.9212 56.9294 16.8838 57.0076 16.8643C57.0889 16.8415 57.1671 16.8301 57.2419 16.8301C57.3201 16.8301 57.3901 16.8529 57.4519 16.8984C57.517 16.944 57.574 16.9977 57.6228 17.0596C57.6716 17.1214 57.7123 17.1865 57.7449 17.2549C57.7774 17.32 57.8002 17.3737 57.8132 17.416C57.9141 17.5658 58.0346 17.7367 58.1746 17.9287C58.3178 18.1208 58.4724 18.3275 58.6384 18.5488C58.8077 18.7669 58.9867 18.9964 59.1755 19.2373C59.3643 19.4749 59.5548 19.7158 59.7468 19.96C59.9421 20.2041 60.1358 20.4482 60.3279 20.6924C60.5199 20.9333 60.7022 21.166 60.8748 21.3906C61.0473 21.6152 61.2084 21.8285 61.3582 22.0303C61.5079 22.2288 61.6365 22.4079 61.7439 22.5674C61.7439 21.8708 61.7406 21.2718 61.7341 20.7705C61.7309 20.266 61.726 19.8379 61.7195 19.4863C61.713 19.1315 61.7048 18.8402 61.6951 18.6123C61.6853 18.3844 61.6772 18.1956 61.6707 18.0459C61.6641 17.8962 61.6576 17.7741 61.6511 17.6797C61.6479 17.582 61.6462 17.4893 61.6462 17.4014C61.6462 17.2712 61.6593 17.1654 61.6853 17.084C61.7146 16.9993 61.7537 16.9342 61.8025 16.8887C61.8546 16.8431 61.9181 16.8122 61.9929 16.7959C62.0678 16.7796 62.1541 16.7715 62.2517 16.7715C62.3787 16.7715 62.4779 16.7975 62.5496 16.8496C62.6212 16.9017 62.6749 16.9684 62.7107 17.0498C62.7498 17.1279 62.7725 17.2174 62.7791 17.3184C62.7888 17.416 62.7937 17.512 62.7937 17.6064V23.207C62.7937 23.3242 62.8002 23.443 62.8132 23.5635C62.8263 23.6807 62.8328 23.806 62.8328 23.9395C62.8328 24.0664 62.823 24.1722 62.8035 24.2568C62.7839 24.3382 62.7514 24.4049 62.7058 24.457C62.6635 24.5091 62.6065 24.5449 62.5349 24.5645C62.4666 24.5872 62.3835 24.5986 62.2859 24.5986C62.1036 24.5986 61.9571 24.5531 61.8464 24.4619C61.739 24.3708 61.6625 24.2601 61.6169 24.1299C61.3077 23.7067 60.9936 23.29 60.6746 22.8799C60.3588 22.4665 60.0398 22.0547 59.7175 21.6445C59.3953 21.2311 59.0714 20.8161 58.7458 20.3994C58.4203 19.9795 58.0964 19.5531 57.7742 19.1201L57.4812 18.6611C57.4845 19.1592 57.4877 19.6035 57.491 19.9941C57.4942 20.3815 57.4975 20.7282 57.5007 21.0342C57.504 21.3369 57.5072 21.6055 57.5105 21.8398C57.5138 22.071 57.5154 22.2793 57.5154 22.4648C57.5186 22.6471 57.5203 22.8148 57.5203 22.9678C57.5235 23.1175 57.5251 23.264 57.5251 23.4072C57.5284 23.4919 57.5333 23.583 57.5398 23.6807C57.5496 23.7751 57.5544 23.8678 57.5544 23.959C57.5544 24.0436 57.5463 24.125 57.53 24.2031C57.517 24.2812 57.4893 24.3496 57.447 24.4082C57.4047 24.4668 57.3445 24.5124 57.2664 24.5449C57.1915 24.5807 57.0922 24.5986 56.9685 24.5986C56.8025 24.5986 56.6625 24.5579 56.5486 24.4766C56.4347 24.3952 56.3777 24.2845 56.3777 24.1445ZM64.5271 20.7656C64.5271 20.0983 64.6231 19.5156 64.8152 19.0176C65.0072 18.5195 65.2725 18.1045 65.6111 17.7725C65.9496 17.4404 66.35 17.1914 66.8123 17.0254C67.2745 16.8594 67.7774 16.7764 68.321 16.7764C68.461 16.7764 68.6189 16.7796 68.7947 16.7861C68.9705 16.7894 69.1495 16.8008 69.3318 16.8203C69.5173 16.8398 69.6996 16.8675 69.8787 16.9033C70.0577 16.9391 70.2237 16.9863 70.3767 17.0449C70.4972 17.0905 70.5981 17.1556 70.6794 17.2402C70.7608 17.3249 70.8015 17.4469 70.8015 17.6064C70.8015 17.792 70.7543 17.9417 70.6599 18.0557C70.5688 18.1663 70.4613 18.2217 70.3376 18.2217C70.3116 18.2217 70.2774 18.2184 70.2351 18.2119C70.1928 18.2054 70.157 18.194 70.1277 18.1777C70.0007 18.1094 69.8461 18.054 69.6638 18.0117C69.4848 17.9694 69.2992 17.9352 69.1072 17.9092C68.9151 17.8831 68.7279 17.8652 68.5457 17.8555C68.3634 17.8457 68.2071 17.8408 68.0769 17.8408C67.8979 17.8408 67.7139 17.8636 67.5251 17.9092C67.3363 17.9515 67.1508 18.0199 66.9685 18.1143C66.7895 18.2087 66.6186 18.3291 66.4558 18.4756C66.2963 18.6221 66.1563 18.7962 66.0359 18.998C65.9154 19.1999 65.8194 19.4326 65.7478 19.6963C65.6762 19.9567 65.6404 20.2497 65.6404 20.5752C65.6404 20.9561 65.6843 21.293 65.7722 21.5859C65.8634 21.8789 65.9871 22.1344 66.1433 22.3525C66.2996 22.5674 66.4835 22.7497 66.6951 22.8994C66.9067 23.0459 67.1345 23.1647 67.3787 23.2559C67.6261 23.347 67.8832 23.4121 68.1501 23.4512C68.4171 23.4902 68.684 23.5098 68.9509 23.5098C69.0681 23.5098 69.2 23.5081 69.3464 23.5049C69.4962 23.4984 69.6443 23.4821 69.7908 23.4561C69.7908 23.137 69.7891 22.8652 69.7859 22.6406C69.7859 22.416 69.7843 22.2158 69.781 22.04C69.7778 21.8643 69.7729 21.7031 69.7664 21.5566C69.7631 21.4102 69.7582 21.2539 69.7517 21.0879C69.7517 20.9707 69.7436 20.8535 69.7273 20.7363C69.711 20.6159 69.7029 20.4873 69.7029 20.3506C69.7029 20.3018 69.7126 20.2497 69.7322 20.1943C69.755 20.1357 69.7891 20.082 69.8347 20.0332C69.8835 19.9811 69.947 19.9388 70.0251 19.9062C70.1033 19.8704 70.2009 19.8525 70.3181 19.8525C70.5102 19.8525 70.6583 19.8981 70.7625 19.9893C70.8699 20.0771 70.9236 20.1976 70.9236 20.3506C70.9236 20.4157 70.922 20.4792 70.9187 20.541C70.9154 20.5996 70.9138 20.6631 70.9138 20.7314C70.9106 20.8356 70.9057 20.9626 70.8992 21.1123C70.8959 21.2588 70.8927 21.4476 70.8894 21.6787C70.8861 21.9066 70.8829 22.1849 70.8796 22.5137C70.8764 22.8392 70.8748 23.2298 70.8748 23.6855C70.8715 23.8711 70.8471 24.016 70.8015 24.1201C70.7559 24.2243 70.6941 24.3024 70.616 24.3545C70.5378 24.4033 70.4467 24.4326 70.3425 24.4424C70.2416 24.4521 70.1358 24.457 70.0251 24.457C69.9307 24.457 69.8315 24.4619 69.7273 24.4717C69.6231 24.4814 69.5173 24.4928 69.4099 24.5059C69.3025 24.5189 69.1967 24.5303 69.0925 24.54C68.9916 24.5498 68.8956 24.5547 68.8044 24.5547C68.1111 24.5547 67.4975 24.4521 66.9636 24.2471C66.433 24.042 65.9871 23.7669 65.6257 23.4219C65.2644 23.0736 64.991 22.6715 64.8054 22.2158C64.6199 21.7568 64.5271 21.2734 64.5271 20.7656ZM72.9841 23.9053C72.9841 23.8499 72.9906 23.7913 73.0037 23.7295C73.0199 23.6676 73.0362 23.6107 73.0525 23.5586L73.0964 23.4023L72.9841 17.5625C72.9841 17.403 73.002 17.2793 73.0378 17.1914C73.0769 17.1035 73.1257 17.0384 73.1843 16.9961C73.2429 16.9538 73.3097 16.9294 73.3845 16.9229C73.4626 16.9163 73.5408 16.9131 73.6189 16.9131H76.1921C76.2507 16.9066 76.3158 16.8984 76.3875 16.8887C76.4623 16.8757 76.5144 16.8691 76.5437 16.8691C76.6674 16.8691 76.7667 16.8805 76.8416 16.9033C76.9197 16.9261 76.9799 16.9603 77.0222 17.0059C77.0678 17.0482 77.0971 17.1019 77.1101 17.167C77.1264 17.2321 77.1345 17.3086 77.1345 17.3965C77.1345 17.5202 77.1182 17.6195 77.0857 17.6943C77.0564 17.7692 77.0141 17.8278 76.9587 17.8701C76.9067 17.9092 76.8448 17.9352 76.7732 17.9482C76.7016 17.9613 76.6251 17.9678 76.5437 17.9678C76.5079 17.9678 76.4607 17.9678 76.4021 17.9678C76.3435 17.9645 76.2817 17.9596 76.2166 17.9531C75.9008 17.9531 75.6453 17.9531 75.45 17.9531C75.2579 17.9531 75.1033 17.9548 74.9861 17.958C74.8722 17.958 74.7843 17.958 74.7224 17.958C74.6638 17.958 74.6117 17.958 74.5662 17.958H74.1121V19.5059C74.1316 19.5059 74.1544 19.5075 74.1804 19.5107C74.2097 19.5107 74.2537 19.5107 74.3123 19.5107C74.3708 19.5107 74.4506 19.5107 74.5515 19.5107C74.6557 19.5107 74.794 19.5107 74.9666 19.5107C75.1391 19.5107 75.3523 19.5107 75.6062 19.5107C75.8601 19.5107 76.1677 19.5107 76.5291 19.5107C76.5649 19.5107 76.6056 19.5091 76.6511 19.5059C76.6967 19.5026 76.7423 19.4977 76.7878 19.4912C76.8464 19.4847 76.9148 19.4782 76.9929 19.4717C77.071 19.4652 77.1557 19.4619 77.2468 19.4619C77.3347 19.4619 77.4128 19.4798 77.4812 19.5156C77.5496 19.5514 77.6065 19.597 77.6521 19.6523C77.7009 19.7044 77.7367 19.7614 77.7595 19.8232C77.7856 19.8851 77.7986 19.9437 77.7986 19.999C77.7986 20.1748 77.74 20.3034 77.6228 20.3848C77.5089 20.4661 77.3608 20.5068 77.1785 20.5068L74.1121 20.5117V23.4365C74.4343 23.4365 74.7582 23.4414 75.0837 23.4512C75.4093 23.4609 75.7494 23.4658 76.1042 23.4658C76.2019 23.4658 76.2914 23.4609 76.3728 23.4512C76.4542 23.4414 76.5323 23.43 76.6072 23.417C76.6755 23.4072 76.7439 23.3991 76.8123 23.3926C76.8839 23.3828 76.962 23.3779 77.0466 23.3779C77.1443 23.3779 77.2338 23.3861 77.3152 23.4023C77.3998 23.4154 77.4731 23.4414 77.5349 23.4805C77.5968 23.5163 77.6456 23.5667 77.6814 23.6318C77.7172 23.6937 77.7351 23.7734 77.7351 23.8711C77.7351 24.0143 77.7107 24.125 77.6619 24.2031C77.613 24.2812 77.5463 24.3398 77.4617 24.3789C77.3803 24.4147 77.2859 24.4375 77.1785 24.4473C77.0743 24.4538 76.9653 24.457 76.8513 24.457H73.5652C73.4806 24.457 73.4024 24.4473 73.3308 24.4277C73.2625 24.4082 73.2022 24.3773 73.1501 24.335C73.0981 24.2894 73.0574 24.2324 73.0281 24.1641C72.9988 24.0924 72.9841 24.0062 72.9841 23.9053ZM79.4636 24.1445C79.4636 24.0078 79.4734 23.8923 79.4929 23.7979C79.5125 23.7035 79.5238 23.6595 79.5271 23.666C79.5336 23.3112 79.5385 22.9515 79.5417 22.5869C79.5483 22.2223 79.5515 21.8366 79.5515 21.4297C79.5515 21.1725 79.5515 20.8942 79.5515 20.5947C79.5515 20.292 79.5483 19.9876 79.5417 19.6816C79.5385 19.3724 79.532 19.0697 79.5222 18.7734C79.5125 18.474 79.4994 18.1973 79.4832 17.9434C79.4701 17.8685 79.4604 17.8018 79.4539 17.7432C79.4473 17.6813 79.4441 17.6162 79.4441 17.5479C79.4441 17.3883 79.4783 17.263 79.5466 17.1719C79.615 17.0775 79.7257 17.0124 79.8787 16.9766C79.9438 16.9212 80.0154 16.8838 80.0935 16.8643C80.1749 16.8415 80.253 16.8301 80.3279 16.8301C80.406 16.8301 80.476 16.8529 80.5378 16.8984C80.6029 16.944 80.6599 16.9977 80.7087 17.0596C80.7576 17.1214 80.7983 17.1865 80.8308 17.2549C80.8634 17.32 80.8861 17.3737 80.8992 17.416C81.0001 17.5658 81.1205 17.7367 81.2605 17.9287C81.4037 18.1208 81.5583 18.3275 81.7244 18.5488C81.8936 18.7669 82.0727 18.9964 82.2615 19.2373C82.4503 19.4749 82.6407 19.7158 82.8328 19.96C83.0281 20.2041 83.2218 20.4482 83.4138 20.6924C83.6059 20.9333 83.7882 21.166 83.9607 21.3906C84.1332 21.6152 84.2944 21.8285 84.4441 22.0303C84.5938 22.2288 84.7224 22.4079 84.8298 22.5674C84.8298 21.8708 84.8266 21.2718 84.8201 20.7705C84.8168 20.266 84.8119 19.8379 84.8054 19.4863C84.7989 19.1315 84.7908 18.8402 84.781 18.6123C84.7712 18.3844 84.7631 18.1956 84.7566 18.0459C84.7501 17.8962 84.7436 17.7741 84.7371 17.6797C84.7338 17.582 84.7322 17.4893 84.7322 17.4014C84.7322 17.2712 84.7452 17.1654 84.7712 17.084C84.8005 16.9993 84.8396 16.9342 84.8884 16.8887C84.9405 16.8431 85.004 16.8122 85.0789 16.7959C85.1537 16.7796 85.24 16.7715 85.3376 16.7715C85.4646 16.7715 85.5639 16.7975 85.6355 16.8496C85.7071 16.9017 85.7608 16.9684 85.7966 17.0498C85.8357 17.1279 85.8585 17.2174 85.865 17.3184C85.8748 17.416 85.8796 17.512 85.8796 17.6064V23.207C85.8796 23.3242 85.8861 23.443 85.8992 23.5635C85.9122 23.6807 85.9187 23.806 85.9187 23.9395C85.9187 24.0664 85.9089 24.1722 85.8894 24.2568C85.8699 24.3382 85.8373 24.4049 85.7917 24.457C85.7494 24.5091 85.6925 24.5449 85.6208 24.5645C85.5525 24.5872 85.4695 24.5986 85.3718 24.5986C85.1895 24.5986 85.0431 24.5531 84.9324 24.4619C84.825 24.3708 84.7485 24.2601 84.7029 24.1299C84.3936 23.7067 84.0795 23.29 83.7605 22.8799C83.4447 22.4665 83.1257 22.0547 82.8035 21.6445C82.4812 21.2311 82.1573 20.8161 81.8318 20.3994C81.5063 19.9795 81.1824 19.5531 80.8601 19.1201L80.5671 18.6611C80.5704 19.1592 80.5736 19.6035 80.5769 19.9941C80.5802 20.3815 80.5834 20.7282 80.5867 21.0342C80.5899 21.3369 80.5932 21.6055 80.5964 21.8398C80.5997 22.071 80.6013 22.2793 80.6013 22.4648C80.6046 22.6471 80.6062 22.8148 80.6062 22.9678C80.6095 23.1175 80.6111 23.264 80.6111 23.4072C80.6143 23.4919 80.6192 23.583 80.6257 23.6807C80.6355 23.7751 80.6404 23.8678 80.6404 23.959C80.6404 24.0436 80.6322 24.125 80.616 24.2031C80.6029 24.2812 80.5753 24.3496 80.533 24.4082C80.4906 24.4668 80.4304 24.5124 80.3523 24.5449C80.2774 24.5807 80.1781 24.5986 80.0544 24.5986C79.8884 24.5986 79.7485 24.5579 79.6345 24.4766C79.5206 24.3952 79.4636 24.2845 79.4636 24.1445ZM88.2234 24.0664C88.2234 23.9004 88.2348 23.7376 88.2576 23.5781C88.2836 23.4154 88.2966 23.2428 88.2966 23.0605C88.2966 22.2305 88.2885 21.3955 88.2722 20.5557C88.2592 19.7158 88.2527 18.8532 88.2527 17.9678C88.2527 17.8766 88.2429 17.7855 88.2234 17.6943C88.2039 17.5999 88.1941 17.499 88.1941 17.3916C88.1941 17.307 88.2055 17.2272 88.2283 17.1523C88.2511 17.0775 88.2901 17.0124 88.3455 16.957C88.4008 16.8984 88.4773 16.8529 88.575 16.8203C88.6726 16.7878 88.7947 16.7715 88.9412 16.7715C89.0876 16.7715 89.2032 16.8268 89.2878 16.9375C89.3725 17.0482 89.4148 17.1963 89.4148 17.3818C89.4148 17.4372 89.4099 17.4925 89.4001 17.5479C89.3904 17.5999 89.3806 17.6553 89.3708 17.7139C89.3643 17.9938 89.3595 18.2949 89.3562 18.6172C89.3529 18.9395 89.3513 19.3089 89.3513 19.7256C89.3513 20.0967 89.3529 20.4759 89.3562 20.8633C89.3595 21.2507 89.3643 21.6234 89.3708 21.9814C89.3774 22.3395 89.3855 22.6748 89.3953 22.9873C89.4083 23.2965 89.4229 23.5635 89.4392 23.7881V23.7832C89.4457 23.832 89.4506 23.8792 89.4539 23.9248C89.4604 23.9671 89.4636 24.0111 89.4636 24.0566C89.4636 24.1348 89.4539 24.208 89.4343 24.2764C89.4181 24.3415 89.3888 24.3984 89.3464 24.4473C89.3041 24.4961 89.2455 24.5335 89.1707 24.5596C89.0958 24.5856 89.003 24.5986 88.8923 24.5986C88.7621 24.5986 88.6531 24.5872 88.5652 24.5645C88.4806 24.5417 88.4122 24.5075 88.3601 24.4619C88.3113 24.4163 88.2755 24.361 88.2527 24.2959C88.2332 24.2275 88.2234 24.151 88.2234 24.0664ZM91.4705 20.6826C91.4705 20.1032 91.5518 19.5742 91.7146 19.0957C91.8806 18.6172 92.1134 18.2054 92.4128 17.8604C92.7156 17.5153 93.0785 17.2484 93.5017 17.0596C93.9281 16.8675 94.4001 16.7715 94.9177 16.7715C95.4646 16.7715 95.9464 16.8675 96.363 17.0596C96.783 17.2484 97.1345 17.5153 97.4177 17.8604C97.7042 18.2054 97.9207 18.6172 98.0671 19.0957C98.2136 19.5742 98.2869 20.1032 98.2869 20.6826C98.2869 21.2327 98.2071 21.7471 98.0476 22.2256C97.8881 22.7008 97.6602 23.1143 97.364 23.4658C97.0678 23.8174 96.7097 24.0941 96.2898 24.2959C95.8699 24.4977 95.3995 24.5986 94.8787 24.5986C94.5336 24.5986 94.2097 24.5531 93.907 24.4619C93.6042 24.3708 93.3259 24.2406 93.072 24.0713C92.8214 23.902 92.5968 23.7002 92.3982 23.4658C92.1996 23.2282 92.0304 22.9645 91.8904 22.6748C91.7537 22.3851 91.6495 22.0726 91.5779 21.7373C91.5063 21.402 91.4705 21.0505 91.4705 20.6826ZM92.5837 20.6826C92.5837 20.9268 92.6065 21.1693 92.6521 21.4102C92.6977 21.6478 92.7644 21.8757 92.8523 22.0938C92.9434 22.3086 93.0541 22.5088 93.1843 22.6943C93.3178 22.8766 93.4692 23.0361 93.6384 23.1729C93.811 23.3063 94.0014 23.4121 94.2097 23.4902C94.4213 23.5651 94.6492 23.6025 94.8933 23.6025C95.1505 23.6025 95.3848 23.5651 95.5964 23.4902C95.808 23.4121 95.9985 23.3063 96.1677 23.1729C96.337 23.0361 96.4835 22.8766 96.6072 22.6943C96.7341 22.5088 96.8383 22.3086 96.9197 22.0938C97.0043 21.8757 97.0662 21.6478 97.1052 21.4102C97.1475 21.1693 97.1687 20.9268 97.1687 20.6826C97.1687 20.292 97.1231 19.9225 97.032 19.5742C96.9408 19.2227 96.8009 18.9134 96.6121 18.6465C96.4265 18.3796 96.1905 18.168 95.9041 18.0117C95.6208 17.8555 95.2839 17.7773 94.8933 17.7773C94.5255 17.7773 94.1983 17.8473 93.9119 17.9873C93.6254 18.1273 93.3829 18.3242 93.1843 18.5781C92.989 18.832 92.8393 19.138 92.7351 19.4961C92.6342 19.8509 92.5837 20.2464 92.5837 20.6826ZM99.9128 20.8682C99.9096 20.3506 99.9096 19.8314 99.9128 19.3105C99.9194 18.7865 99.9226 18.238 99.9226 17.665C99.9226 17.5283 99.9291 17.4046 99.9421 17.2939C99.9584 17.1833 99.9861 17.0889 100.025 17.0107C100.064 16.9326 100.116 16.874 100.181 16.835C100.25 16.7926 100.336 16.7715 100.44 16.7715C100.678 16.7715 100.845 16.8415 100.943 16.9814C101.041 17.1182 101.09 17.3053 101.09 17.543C101.09 17.6113 101.088 17.6846 101.085 17.7627C101.081 17.8408 101.078 17.9336 101.075 18.041C101.072 18.1484 101.067 18.2786 101.06 18.4316C101.057 18.5846 101.054 18.7686 101.051 18.9834C101.047 19.1982 101.044 19.4521 101.041 19.7451C101.038 20.0381 101.036 20.3799 101.036 20.7705C101.036 21.0049 101.042 21.2376 101.055 21.4688C101.072 21.6966 101.101 21.9147 101.143 22.123C101.189 22.3281 101.252 22.5186 101.334 22.6943C101.415 22.8701 101.519 23.0231 101.646 23.1533C101.776 23.2803 101.934 23.3796 102.12 23.4512C102.309 23.5228 102.532 23.5586 102.789 23.5586C103.085 23.5586 103.336 23.4984 103.541 23.3779C103.746 23.2575 103.912 23.0817 104.039 22.8506C104.169 22.6195 104.262 22.3346 104.317 21.9961C104.376 21.6543 104.405 21.2637 104.405 20.8242C104.405 20.0332 104.399 19.3643 104.385 18.8174C104.372 18.2705 104.363 17.875 104.356 17.6309C104.353 17.582 104.351 17.5316 104.351 17.4795C104.351 17.4274 104.351 17.3965 104.351 17.3867C104.351 17.1556 104.402 16.9961 104.503 16.9082C104.607 16.8171 104.745 16.7715 104.918 16.7715C105.028 16.7715 105.121 16.7878 105.196 16.8203C105.274 16.8529 105.336 16.8952 105.382 16.9473C105.427 16.9993 105.46 17.0579 105.479 17.123C105.499 17.1882 105.509 17.2516 105.509 17.3135C105.509 17.4209 105.504 17.5316 105.494 17.6455C105.487 17.7562 105.484 17.8717 105.484 17.9922C105.484 18.2526 105.486 18.4935 105.489 18.7148C105.492 18.9362 105.497 19.1478 105.504 19.3496C105.504 19.584 105.507 19.8216 105.513 20.0625C105.52 20.3001 105.523 20.5573 105.523 20.834C105.523 21.4297 105.466 21.9619 105.352 22.4307C105.242 22.8962 105.071 23.29 104.84 23.6123C104.608 23.9346 104.317 24.1803 103.966 24.3496C103.617 24.5189 103.207 24.6035 102.735 24.6035C102.497 24.6035 102.263 24.5807 102.032 24.5352C101.801 24.4928 101.581 24.418 101.373 24.3105C101.164 24.2031 100.971 24.0583 100.792 23.876C100.616 23.6937 100.463 23.4642 100.333 23.1875C100.203 22.9108 100.1 22.582 100.025 22.2012C99.9503 21.8203 99.9128 21.376 99.9128 20.8682ZM107.203 22.7041C107.219 22.4404 107.273 22.2402 107.364 22.1035C107.458 21.9635 107.623 21.8936 107.857 21.8936C108.004 21.8936 108.129 21.9359 108.233 22.0205C108.337 22.1019 108.389 22.2158 108.389 22.3623C108.389 22.4469 108.381 22.5316 108.365 22.6162C108.349 22.7008 108.344 22.7887 108.35 22.8799C108.363 22.9906 108.412 23.0915 108.497 23.1826C108.581 23.2738 108.689 23.3535 108.819 23.4219C108.949 23.487 109.097 23.5391 109.263 23.5781C109.429 23.6139 109.599 23.6318 109.771 23.6318C109.947 23.6318 110.121 23.6172 110.294 23.5879C110.469 23.5553 110.627 23.4967 110.767 23.4121C110.911 23.3275 111.026 23.2119 111.114 23.0654C111.202 22.9189 111.246 22.7285 111.246 22.4941C111.246 22.3411 111.208 22.1979 111.134 22.0645C111.059 21.9277 110.963 21.804 110.845 21.6934C110.728 21.5794 110.598 21.4769 110.455 21.3857C110.315 21.2946 110.18 21.2148 110.05 21.1465C109.864 21.0521 109.674 20.9609 109.478 20.873C109.286 20.7819 109.097 20.6875 108.912 20.5898C108.73 20.4889 108.555 20.3799 108.389 20.2627C108.227 20.1423 108.083 20.0023 107.96 19.8428C107.836 19.6833 107.738 19.4993 107.667 19.291C107.595 19.0794 107.559 18.8353 107.559 18.5586C107.559 18.2493 107.624 17.9824 107.755 17.7578C107.888 17.5332 108.062 17.3477 108.277 17.2012C108.492 17.0547 108.738 16.9473 109.014 16.8789C109.294 16.8073 109.581 16.7715 109.874 16.7715C110.134 16.7715 110.386 16.7943 110.631 16.8398C110.875 16.8854 111.093 16.9603 111.285 17.0645C111.477 17.1654 111.636 17.3021 111.763 17.4746C111.89 17.6439 111.967 17.8522 111.993 18.0996C111.999 18.1908 111.988 18.2721 111.959 18.3438C111.929 18.4121 111.889 18.4707 111.837 18.5195C111.785 18.5651 111.724 18.6009 111.656 18.627C111.591 18.6497 111.524 18.6611 111.456 18.6611C111.352 18.6611 111.264 18.6449 111.192 18.6123C111.121 18.5798 111.062 18.5391 111.016 18.4902C110.971 18.4414 110.937 18.3861 110.914 18.3242C110.891 18.2624 110.876 18.2021 110.87 18.1436C110.821 18.0654 110.758 18.002 110.679 17.9531C110.601 17.901 110.513 17.8604 110.416 17.8311C110.321 17.7985 110.222 17.7773 110.118 17.7676C110.014 17.7546 109.913 17.748 109.815 17.748C109.678 17.748 109.542 17.7627 109.405 17.792C109.272 17.8213 109.149 17.8685 109.039 17.9336C108.928 17.9987 108.839 18.0817 108.77 18.1826C108.702 18.2835 108.668 18.4072 108.668 18.5537C108.668 18.7262 108.708 18.8792 108.79 19.0127C108.871 19.1462 108.974 19.265 109.097 19.3691C109.221 19.4733 109.358 19.5677 109.508 19.6523C109.661 19.737 109.809 19.8151 109.952 19.8867C110.124 19.9746 110.303 20.069 110.489 20.1699C110.675 20.2676 110.855 20.375 111.031 20.4922C111.21 20.6061 111.379 20.7314 111.539 20.8682C111.698 21.0049 111.838 21.1579 111.959 21.3271C112.079 21.4932 112.174 21.6755 112.242 21.874C112.314 22.0726 112.349 22.2923 112.349 22.5332C112.349 22.7904 112.314 23.0199 112.242 23.2217C112.17 23.4235 112.073 23.6009 111.949 23.7539C111.825 23.9069 111.68 24.0371 111.514 24.1445C111.348 24.252 111.169 24.3398 110.977 24.4082C110.785 24.4766 110.585 24.5254 110.377 24.5547C110.172 24.5872 109.967 24.6035 109.761 24.6035C109.589 24.6035 109.403 24.5889 109.205 24.5596C109.01 24.5303 108.816 24.4847 108.624 24.4229C108.432 24.3577 108.248 24.2764 108.072 24.1787C107.899 24.0778 107.747 23.9574 107.613 23.8174C107.483 23.6742 107.38 23.5114 107.305 23.3291C107.231 23.1436 107.196 22.9352 107.203 22.7041ZM121.573 24.1445C121.573 24.0078 121.583 23.8923 121.602 23.7979C121.622 23.7035 121.633 23.6595 121.636 23.666C121.643 23.3112 121.648 22.9515 121.651 22.5869C121.658 22.2223 121.661 21.8366 121.661 21.4297C121.661 21.1725 121.661 20.8942 121.661 20.5947C121.661 20.292 121.658 19.9876 121.651 19.6816C121.648 19.3724 121.641 19.0697 121.632 18.7734C121.622 18.474 121.609 18.1973 121.593 17.9434C121.58 17.8685 121.57 17.8018 121.563 17.7432C121.557 17.6813 121.553 17.6162 121.553 17.5479C121.553 17.3883 121.588 17.263 121.656 17.1719C121.724 17.0775 121.835 17.0124 121.988 16.9766C122.053 16.9212 122.125 16.8838 122.203 16.8643C122.284 16.8415 122.362 16.8301 122.437 16.8301C122.515 16.8301 122.585 16.8529 122.647 16.8984C122.712 16.944 122.769 16.9977 122.818 17.0596C122.867 17.1214 122.908 17.1865 122.94 17.2549C122.973 17.32 122.996 17.3737 123.009 17.416C123.109 17.5658 123.23 17.7367 123.37 17.9287C123.513 18.1208 123.668 18.3275 123.834 18.5488C124.003 18.7669 124.182 18.9964 124.371 19.2373C124.56 19.4749 124.75 19.7158 124.942 19.96C125.137 20.2041 125.331 20.4482 125.523 20.6924C125.715 20.9333 125.898 21.166 126.07 21.3906C126.243 21.6152 126.404 21.8285 126.553 22.0303C126.703 22.2288 126.832 22.4079 126.939 22.5674C126.939 21.8708 126.936 21.2718 126.929 20.7705C126.926 20.266 126.921 19.8379 126.915 19.4863C126.908 19.1315 126.9 18.8402 126.89 18.6123C126.881 18.3844 126.872 18.1956 126.866 18.0459C126.859 17.8962 126.853 17.7741 126.846 17.6797C126.843 17.582 126.842 17.4893 126.842 17.4014C126.842 17.2712 126.855 17.1654 126.881 17.084C126.91 16.9993 126.949 16.9342 126.998 16.8887C127.05 16.8431 127.113 16.8122 127.188 16.7959C127.263 16.7796 127.349 16.7715 127.447 16.7715C127.574 16.7715 127.673 16.7975 127.745 16.8496C127.816 16.9017 127.87 16.9684 127.906 17.0498C127.945 17.1279 127.968 17.2174 127.974 17.3184C127.984 17.416 127.989 17.512 127.989 17.6064V23.207C127.989 23.3242 127.996 23.443 128.009 23.5635C128.022 23.6807 128.028 23.806 128.028 23.9395C128.028 24.0664 128.018 24.1722 127.999 24.2568C127.979 24.3382 127.947 24.4049 127.901 24.457C127.859 24.5091 127.802 24.5449 127.73 24.5645C127.662 24.5872 127.579 24.5986 127.481 24.5986C127.299 24.5986 127.152 24.5531 127.042 24.4619C126.934 24.3708 126.858 24.2601 126.812 24.1299C126.503 23.7067 126.189 23.29 125.87 22.8799C125.554 22.4665 125.235 22.0547 124.913 21.6445C124.591 21.2311 124.267 20.8161 123.941 20.3994C123.616 19.9795 123.292 19.5531 122.969 19.1201L122.677 18.6611C122.68 19.1592 122.683 19.6035 122.686 19.9941C122.69 20.3815 122.693 20.7282 122.696 21.0342C122.699 21.3369 122.703 21.6055 122.706 21.8398C122.709 22.071 122.711 22.2793 122.711 22.4648C122.714 22.6471 122.716 22.8148 122.716 22.9678C122.719 23.1175 122.72 23.264 122.72 23.4072C122.724 23.4919 122.729 23.583 122.735 23.6807C122.745 23.7751 122.75 23.8678 122.75 23.959C122.75 24.0436 122.742 24.125 122.725 24.2031C122.712 24.2812 122.685 24.3496 122.642 24.4082C122.6 24.4668 122.54 24.5124 122.462 24.5449C122.387 24.5807 122.288 24.5986 122.164 24.5986C121.998 24.5986 121.858 24.5579 121.744 24.4766C121.63 24.3952 121.573 24.2845 121.573 24.1445ZM129.752 22.7041C129.768 22.4404 129.822 22.2402 129.913 22.1035C130.007 21.9635 130.172 21.8936 130.406 21.8936C130.552 21.8936 130.678 21.9359 130.782 22.0205C130.886 22.1019 130.938 22.2158 130.938 22.3623C130.938 22.4469 130.93 22.5316 130.914 22.6162C130.898 22.7008 130.893 22.7887 130.899 22.8799C130.912 22.9906 130.961 23.0915 131.046 23.1826C131.13 23.2738 131.238 23.3535 131.368 23.4219C131.498 23.487 131.646 23.5391 131.812 23.5781C131.978 23.6139 132.148 23.6318 132.32 23.6318C132.496 23.6318 132.67 23.6172 132.843 23.5879C133.018 23.5553 133.176 23.4967 133.316 23.4121C133.459 23.3275 133.575 23.2119 133.663 23.0654C133.751 22.9189 133.795 22.7285 133.795 22.4941C133.795 22.3411 133.757 22.1979 133.682 22.0645C133.608 21.9277 133.511 21.804 133.394 21.6934C133.277 21.5794 133.147 21.4769 133.004 21.3857C132.864 21.2946 132.729 21.2148 132.598 21.1465C132.413 21.0521 132.222 20.9609 132.027 20.873C131.835 20.7819 131.646 20.6875 131.461 20.5898C131.278 20.4889 131.104 20.3799 130.938 20.2627C130.775 20.1423 130.632 20.0023 130.509 19.8428C130.385 19.6833 130.287 19.4993 130.216 19.291C130.144 19.0794 130.108 18.8353 130.108 18.5586C130.108 18.2493 130.173 17.9824 130.303 17.7578C130.437 17.5332 130.611 17.3477 130.826 17.2012C131.041 17.0547 131.287 16.9473 131.563 16.8789C131.843 16.8073 132.13 16.7715 132.423 16.7715C132.683 16.7715 132.935 16.7943 133.179 16.8398C133.424 16.8854 133.642 16.9603 133.834 17.0645C134.026 17.1654 134.185 17.3021 134.312 17.4746C134.439 17.6439 134.516 17.8522 134.542 18.0996C134.548 18.1908 134.537 18.2721 134.508 18.3438C134.478 18.4121 134.438 18.4707 134.385 18.5195C134.333 18.5651 134.273 18.6009 134.205 18.627C134.14 18.6497 134.073 18.6611 134.005 18.6611C133.9 18.6611 133.813 18.6449 133.741 18.6123C133.669 18.5798 133.611 18.5391 133.565 18.4902C133.52 18.4414 133.485 18.3861 133.463 18.3242C133.44 18.2624 133.425 18.2021 133.419 18.1436C133.37 18.0654 133.306 18.002 133.228 17.9531C133.15 17.901 133.062 17.8604 132.965 17.8311C132.87 17.7985 132.771 17.7773 132.667 17.7676C132.563 17.7546 132.462 17.748 132.364 17.748C132.227 17.748 132.091 17.7627 131.954 17.792C131.82 17.8213 131.698 17.8685 131.588 17.9336C131.477 17.9987 131.387 18.0817 131.319 18.1826C131.251 18.2835 131.217 18.4072 131.217 18.5537C131.217 18.7262 131.257 18.8792 131.339 19.0127C131.42 19.1462 131.523 19.265 131.646 19.3691C131.77 19.4733 131.907 19.5677 132.056 19.6523C132.209 19.737 132.358 19.8151 132.501 19.8867C132.673 19.9746 132.852 20.069 133.038 20.1699C133.223 20.2676 133.404 20.375 133.58 20.4922C133.759 20.6061 133.928 20.7314 134.088 20.8682C134.247 21.0049 134.387 21.1579 134.508 21.3271C134.628 21.4932 134.722 21.6755 134.791 21.874C134.862 22.0726 134.898 22.2923 134.898 22.5332C134.898 22.7904 134.862 23.0199 134.791 23.2217C134.719 23.4235 134.622 23.6009 134.498 23.7539C134.374 23.9069 134.229 24.0371 134.063 24.1445C133.897 24.252 133.718 24.3398 133.526 24.4082C133.334 24.4766 133.134 24.5254 132.926 24.5547C132.72 24.5872 132.515 24.6035 132.31 24.6035C132.138 24.6035 131.952 24.5889 131.754 24.5596C131.558 24.5303 131.365 24.4847 131.173 24.4229C130.981 24.3577 130.797 24.2764 130.621 24.1787C130.448 24.0778 130.295 23.9574 130.162 23.8174C130.032 23.6742 129.929 23.5114 129.854 23.3291C129.779 23.1436 129.745 22.9352 129.752 22.7041ZM136.944 24.0664C136.944 23.9004 136.955 23.7376 136.978 23.5781C137.004 23.4154 137.017 23.2428 137.017 23.0605C137.017 22.2305 137.009 21.3955 136.993 20.5557C136.98 19.7158 136.973 18.8532 136.973 17.9678C136.973 17.8766 136.964 17.7855 136.944 17.6943C136.925 17.5999 136.915 17.499 136.915 17.3916C136.915 17.307 136.926 17.2272 136.949 17.1523C136.972 17.0775 137.011 17.0124 137.066 16.957C137.122 16.8984 137.198 16.8529 137.296 16.8203C137.393 16.7878 137.515 16.7715 137.662 16.7715C137.808 16.7715 137.924 16.8268 138.009 16.9375C138.093 17.0482 138.135 17.1963 138.135 17.3818C138.135 17.4372 138.131 17.4925 138.121 17.5479C138.111 17.5999 138.101 17.6553 138.092 17.7139C138.085 17.9938 138.08 18.2949 138.077 18.6172C138.074 18.9395 138.072 19.3089 138.072 19.7256C138.072 20.0967 138.074 20.4759 138.077 20.8633C138.08 21.2507 138.085 21.6234 138.092 21.9814C138.098 22.3395 138.106 22.6748 138.116 22.9873C138.129 23.2965 138.144 23.5635 138.16 23.7881V23.7832C138.166 23.832 138.171 23.8792 138.175 23.9248C138.181 23.9671 138.184 24.0111 138.184 24.0566C138.184 24.1348 138.175 24.208 138.155 24.2764C138.139 24.3415 138.109 24.3984 138.067 24.4473C138.025 24.4961 137.966 24.5335 137.891 24.5596C137.816 24.5856 137.724 24.5986 137.613 24.5986C137.483 24.5986 137.374 24.5872 137.286 24.5645C137.201 24.5417 137.133 24.5075 137.081 24.4619C137.032 24.4163 136.996 24.361 136.973 24.2959C136.954 24.2275 136.944 24.151 136.944 24.0664ZM140.606 23.8857C140.606 23.736 140.613 23.5895 140.626 23.4463C140.639 23.3031 140.645 23.1354 140.645 22.9434C140.645 22.0775 140.642 21.21 140.635 20.3408C140.632 19.4717 140.618 18.5928 140.592 17.7041C140.556 17.6357 140.523 17.5609 140.494 17.4795C140.468 17.3981 140.455 17.3281 140.455 17.2695C140.455 17.1296 140.492 17.0124 140.567 16.918C140.645 16.8203 140.777 16.7715 140.963 16.7715C141.057 16.7715 141.15 16.7845 141.241 16.8105C141.332 16.8333 141.43 16.8447 141.534 16.8447C141.762 16.8447 141.988 16.8333 142.213 16.8105C142.437 16.7845 142.667 16.7715 142.901 16.7715C143.38 16.7715 143.808 16.8187 144.185 16.9131C144.566 17.0042 144.9 17.1328 145.186 17.2988C145.473 17.4616 145.717 17.6569 145.919 17.8848C146.121 18.1094 146.283 18.3568 146.407 18.627C146.534 18.8939 146.627 19.1787 146.685 19.4814C146.744 19.7809 146.773 20.0853 146.773 20.3945C146.773 20.6712 146.744 20.9674 146.685 21.2832C146.63 21.5957 146.537 21.9066 146.407 22.2158C146.277 22.5218 146.108 22.8164 145.899 23.0996C145.691 23.3796 145.434 23.627 145.128 23.8418C144.822 24.0566 144.464 24.2292 144.053 24.3594C143.647 24.4863 143.179 24.5498 142.652 24.5498C142.528 24.5498 142.405 24.5433 142.281 24.5303C142.161 24.5205 142.038 24.5075 141.915 24.4912C141.791 24.4782 141.666 24.4668 141.539 24.457C141.415 24.444 141.288 24.4375 141.158 24.4375C140.959 24.4375 140.818 24.3919 140.733 24.3008C140.649 24.2096 140.606 24.0713 140.606 23.8857ZM141.695 23.3828C141.763 23.4023 141.845 23.4186 141.939 23.4316C142.037 23.4414 142.135 23.4495 142.232 23.4561C142.33 23.4626 142.421 23.4674 142.506 23.4707C142.594 23.4707 142.662 23.4707 142.711 23.4707C143.114 23.4707 143.468 23.4202 143.77 23.3193C144.073 23.2184 144.332 23.0866 144.547 22.9238C144.765 22.7611 144.945 22.5771 145.089 22.3721C145.232 22.167 145.344 21.9603 145.426 21.752C145.51 21.5436 145.569 21.3434 145.601 21.1514C145.634 20.9593 145.65 20.7949 145.65 20.6582C145.65 20.1178 145.585 19.6686 145.455 19.3105C145.328 18.9492 145.139 18.6611 144.888 18.4463C144.641 18.2314 144.335 18.0801 143.97 17.9922C143.609 17.9043 143.192 17.8604 142.72 17.8604C142.659 17.8604 142.582 17.862 142.491 17.8652C142.403 17.8685 142.31 17.8717 142.213 17.875C142.115 17.8783 142.017 17.8831 141.92 17.8896C141.825 17.8962 141.741 17.901 141.666 17.9043L141.695 23.3828ZM148.424 23.9053C148.424 23.8499 148.43 23.7913 148.443 23.7295C148.459 23.6676 148.476 23.6107 148.492 23.5586L148.536 23.4023L148.424 17.5625C148.424 17.403 148.441 17.2793 148.477 17.1914C148.516 17.1035 148.565 17.0384 148.624 16.9961C148.682 16.9538 148.749 16.9294 148.824 16.9229C148.902 16.9163 148.98 16.9131 149.058 16.9131H151.632C151.69 16.9066 151.755 16.8984 151.827 16.8887C151.902 16.8757 151.954 16.8691 151.983 16.8691C152.107 16.8691 152.206 16.8805 152.281 16.9033C152.359 16.9261 152.419 16.9603 152.462 17.0059C152.507 17.0482 152.537 17.1019 152.55 17.167C152.566 17.2321 152.574 17.3086 152.574 17.3965C152.574 17.5202 152.558 17.6195 152.525 17.6943C152.496 17.7692 152.454 17.8278 152.398 17.8701C152.346 17.9092 152.284 17.9352 152.213 17.9482C152.141 17.9613 152.065 17.9678 151.983 17.9678C151.947 17.9678 151.9 17.9678 151.842 17.9678C151.783 17.9645 151.721 17.9596 151.656 17.9531C151.34 17.9531 151.085 17.9531 150.889 17.9531C150.697 17.9531 150.543 17.9548 150.426 17.958C150.312 17.958 150.224 17.958 150.162 17.958C150.103 17.958 150.051 17.958 150.006 17.958H149.552V19.5059C149.571 19.5059 149.594 19.5075 149.62 19.5107C149.649 19.5107 149.693 19.5107 149.752 19.5107C149.81 19.5107 149.89 19.5107 149.991 19.5107C150.095 19.5107 150.233 19.5107 150.406 19.5107C150.579 19.5107 150.792 19.5107 151.046 19.5107C151.3 19.5107 151.607 19.5107 151.969 19.5107C152.004 19.5107 152.045 19.5091 152.091 19.5059C152.136 19.5026 152.182 19.4977 152.227 19.4912C152.286 19.4847 152.354 19.4782 152.432 19.4717C152.51 19.4652 152.595 19.4619 152.686 19.4619C152.774 19.4619 152.852 19.4798 152.921 19.5156C152.989 19.5514 153.046 19.597 153.092 19.6523C153.14 19.7044 153.176 19.7614 153.199 19.8232C153.225 19.8851 153.238 19.9437 153.238 19.999C153.238 20.1748 153.179 20.3034 153.062 20.3848C152.948 20.4661 152.8 20.5068 152.618 20.5068L149.552 20.5117V23.4365C149.874 23.4365 150.198 23.4414 150.523 23.4512C150.849 23.4609 151.189 23.4658 151.544 23.4658C151.641 23.4658 151.731 23.4609 151.812 23.4512C151.894 23.4414 151.972 23.43 152.047 23.417C152.115 23.4072 152.183 23.3991 152.252 23.3926C152.323 23.3828 152.401 23.3779 152.486 23.3779C152.584 23.3779 152.673 23.3861 152.755 23.4023C152.839 23.4154 152.913 23.4414 152.974 23.4805C153.036 23.5163 153.085 23.5667 153.121 23.6318C153.157 23.6937 153.175 23.7734 153.175 23.8711C153.175 24.0143 153.15 24.125 153.101 24.2031C153.052 24.2812 152.986 24.3398 152.901 24.3789C152.82 24.4147 152.725 24.4375 152.618 24.4473C152.514 24.4538 152.405 24.457 152.291 24.457H149.005C148.92 24.457 148.842 24.4473 148.77 24.4277C148.702 24.4082 148.642 24.3773 148.59 24.335C148.538 24.2894 148.497 24.2324 148.468 24.1641C148.438 24.0924 148.424 24.0062 148.424 23.9053Z" fill="#D9D9D9"/>
<rect x="121.538" y="10.8438" width="2.15111" height="16.8636" rx="1.07556" fill="#D9D9D9"/>
<rect x="51.6267" y="10.8438" width="2.15111" height="16.8636" rx="1.07556" fill="#D9D9D9"/>
<path d="M47.2244 26.5C47.2244 41.0913 36.6649 52.9 23.6622 52.9C10.6595 52.9 0.1 41.0913 0.1 26.5C0.1 11.9087 10.6595 0.1 23.6622 0.1C36.6649 0.1 47.2244 11.9087 47.2244 26.5Z" fill="white" stroke="#D9D9D9" stroke-width="0.2"/>
<rect width="22.261" height="26.1804" rx="8" transform="matrix(0.9461 0.323874 -0.263303 0.964713 14.4223 13.625)" fill="#7E53C8"/>
<rect width="22.261" height="26.1804" rx="8" transform="matrix(-0.9461 0.323874 0.263303 0.964713 33.3763 14.4922)" fill="#7E53C8"/>
<path fill-rule="evenodd" clip-rule="evenodd" d="M23.5645 3.61328C19.9225 3.61328 16.9701 6.56568 16.9701 10.2077V22.2156C16.9701 25.8576 19.9225 28.81 23.5645 28.81C27.2065 28.81 30.1589 25.8576 30.1589 22.2156V10.2077C30.1589 6.56569 27.2065 3.61328 23.5645 3.61328ZM23.5644 5.05309C21.2079 5.05309 19.2975 6.96347 19.2975 9.32005V23.1032C19.2975 25.4598 21.2078 27.3702 23.5644 27.3702C25.921 27.3702 27.8314 25.4598 27.8314 23.1033V9.32005C27.8314 6.96347 25.921 5.05309 23.5644 5.05309Z" fill="#7E53C8"/>
<rect x="12.0394" y="12.7969" width="23.0502" height="33.7541" rx="7.5" fill="#7E53C8" stroke="white"/>
<rect x="12.0394" y="12.7969" width="23.0502" height="17.2459" rx="7.5" fill="#7E53C8" stroke="white"/>
<path d="M18.3904 27.3629C18.3904 26.7202 18.9114 26.1992 19.5541 26.1992V26.1992C20.1968 26.1992 20.7178 26.7202 20.7178 27.3629V37.1994C20.7178 37.8422 20.1968 38.3632 19.5541 38.3632V38.3632C18.9114 38.3632 18.3904 37.8422 18.3904 37.1995V27.3629Z" fill="black"/>
<path d="M26.1484 27.3629C26.1484 26.7202 26.6695 26.1992 27.3122 26.1992V26.1992C27.9549 26.1992 28.4759 26.7202 28.4759 27.3629V37.1994C28.4759 37.8422 27.9549 38.3632 27.3122 38.3632V38.3632C26.6695 38.3632 26.1484 37.8422 26.1484 37.1995V27.3629Z" fill="black"/>
</svg>
