<svg width="171" height="71" viewBox="0 0 177 71" fill="none" xmlns="http://www.w3.org/2000/svg">
<path d="M0.966797 64.4482C0.966797 64.3929 0.973307 64.3343 0.986328 64.2725C1.0026 64.2106 1.01888 64.1536 1.03516 64.1016L1.0791 63.9453L0.966797 58.1055C0.966797 57.946 0.984701 57.8223 1.02051 57.7344C1.05957 57.6465 1.1084 57.5814 1.16699 57.5391C1.22559 57.4967 1.29232 57.4723 1.36719 57.4658C1.44531 57.4593 1.52344 57.4561 1.60156 57.4561H4.1748C4.2334 57.4495 4.2985 57.4414 4.37012 57.4316C4.44499 57.4186 4.49707 57.4121 4.52637 57.4121C4.65007 57.4121 4.74935 57.4235 4.82422 57.4463C4.90234 57.4691 4.96257 57.5033 5.00488 57.5488C5.05046 57.5911 5.07975 57.6449 5.09277 57.71C5.10905 57.7751 5.11719 57.8516 5.11719 57.9395C5.11719 58.0632 5.10091 58.1624 5.06836 58.2373C5.03906 58.3122 4.99674 58.3708 4.94141 58.4131C4.88932 58.4521 4.82747 58.4782 4.75586 58.4912C4.68424 58.5042 4.60775 58.5107 4.52637 58.5107C4.49056 58.5107 4.44336 58.5107 4.38477 58.5107C4.32617 58.5075 4.26432 58.5026 4.19922 58.4961C3.88346 58.4961 3.62793 58.4961 3.43262 58.4961C3.24056 58.4961 3.08594 58.4977 2.96875 58.501C2.85482 58.501 2.76693 58.501 2.70508 58.501C2.64648 58.501 2.5944 58.501 2.54883 58.501H2.09473V60.0488C2.11426 60.0488 2.13704 60.0505 2.16309 60.0537C2.19238 60.0537 2.23633 60.0537 2.29492 60.0537C2.35352 60.0537 2.43327 60.0537 2.53418 60.0537C2.63835 60.0537 2.77669 60.0537 2.94922 60.0537C3.12174 60.0537 3.33496 60.0537 3.58887 60.0537C3.84277 60.0537 4.15039 60.0537 4.51172 60.0537C4.54753 60.0537 4.58822 60.0521 4.63379 60.0488C4.67936 60.0456 4.72493 60.0407 4.77051 60.0342C4.8291 60.0277 4.89746 60.0212 4.97559 60.0146C5.05371 60.0081 5.13835 60.0049 5.22949 60.0049C5.31738 60.0049 5.39551 60.0228 5.46387 60.0586C5.53223 60.0944 5.58919 60.14 5.63477 60.1953C5.68359 60.2474 5.7194 60.3044 5.74219 60.3662C5.76823 60.4281 5.78125 60.4867 5.78125 60.542C5.78125 60.7178 5.72266 60.8464 5.60547 60.9277C5.49154 61.0091 5.34342 61.0498 5.16113 61.0498L2.09473 61.0547V63.9795C2.41699 63.9795 2.74089 63.9844 3.06641 63.9941C3.39193 64.0039 3.7321 64.0088 4.08691 64.0088C4.18457 64.0088 4.27409 64.0039 4.35547 63.9941C4.43685 63.9844 4.51497 63.973 4.58984 63.96C4.6582 63.9502 4.72656 63.9421 4.79492 63.9355C4.86654 63.9258 4.94466 63.9209 5.0293 63.9209C5.12695 63.9209 5.21647 63.929 5.29785 63.9453C5.38249 63.9583 5.45573 63.9844 5.51758 64.0234C5.57943 64.0592 5.62826 64.1097 5.66406 64.1748C5.69987 64.2367 5.71777 64.3164 5.71777 64.4141C5.71777 64.5573 5.69336 64.668 5.64453 64.7461C5.5957 64.8242 5.52897 64.8828 5.44434 64.9219C5.36296 64.9577 5.26855 64.9805 5.16113 64.9902C5.05697 64.9967 4.94792 65 4.83398 65H1.54785C1.46322 65 1.38509 64.9902 1.31348 64.9707C1.24512 64.9512 1.1849 64.9202 1.13281 64.8779C1.08073 64.8324 1.04004 64.7754 1.01074 64.707C0.981445 64.6354 0.966797 64.5492 0.966797 64.4482ZM7.57324 64.4287C7.57324 64.279 7.57975 64.1325 7.59277 63.9893C7.60579 63.846 7.6123 63.6784 7.6123 63.4863C7.6123 62.6204 7.60905 61.7529 7.60254 60.8838C7.59928 60.0146 7.58464 59.1357 7.55859 58.2471C7.52279 58.1787 7.49023 58.1038 7.46094 58.0225C7.4349 57.9411 7.42188 57.8711 7.42188 57.8125C7.42188 57.6725 7.45931 57.5553 7.53418 57.4609C7.6123 57.3633 7.74414 57.3145 7.92969 57.3145C8.02409 57.3145 8.11686 57.3275 8.20801 57.3535C8.29915 57.3763 8.39681 57.3877 8.50098 57.3877C8.72884 57.3877 8.95508 57.3763 9.17969 57.3535C9.4043 57.3275 9.63379 57.3145 9.86816 57.3145C10.3467 57.3145 10.7747 57.3617 11.1523 57.4561C11.5332 57.5472 11.8669 57.6758 12.1533 57.8418C12.4398 58.0046 12.6839 58.1999 12.8857 58.4277C13.0876 58.6523 13.2503 58.8997 13.374 59.1699C13.501 59.4368 13.5938 59.7217 13.6523 60.0244C13.7109 60.3239 13.7402 60.6283 13.7402 60.9375C13.7402 61.2142 13.7109 61.5104 13.6523 61.8262C13.597 62.1387 13.5042 62.4495 13.374 62.7588C13.2438 63.0648 13.0745 63.3594 12.8662 63.6426C12.6579 63.9225 12.4007 64.1699 12.0947 64.3848C11.7887 64.5996 11.4307 64.7721 11.0205 64.9023C10.6136 65.0293 10.1465 65.0928 9.61914 65.0928C9.49544 65.0928 9.37174 65.0863 9.24805 65.0732C9.1276 65.0635 9.00553 65.0505 8.88184 65.0342C8.75814 65.0212 8.63281 65.0098 8.50586 65C8.38216 64.987 8.25521 64.9805 8.125 64.9805C7.92643 64.9805 7.78483 64.9349 7.7002 64.8438C7.61556 64.7526 7.57324 64.6143 7.57324 64.4287ZM8.66211 63.9258C8.73047 63.9453 8.81185 63.9616 8.90625 63.9746C9.00391 63.9844 9.10156 63.9925 9.19922 63.999C9.29688 64.0055 9.38802 64.0104 9.47266 64.0137C9.56055 64.0137 9.62891 64.0137 9.67773 64.0137C10.0814 64.0137 10.4346 63.9632 10.7373 63.8623C11.04 63.7614 11.2988 63.6296 11.5137 63.4668C11.7318 63.304 11.9124 63.1201 12.0557 62.915C12.1989 62.71 12.3112 62.5033 12.3926 62.2949C12.4772 62.0866 12.5358 61.8864 12.5684 61.6943C12.6009 61.5023 12.6172 61.3379 12.6172 61.2012C12.6172 60.6608 12.5521 60.2116 12.4219 59.8535C12.2949 59.4922 12.1061 59.2041 11.8555 58.9893C11.6081 58.7744 11.3021 58.623 10.9375 58.5352C10.5762 58.4473 10.1595 58.4033 9.6875 58.4033C9.62565 58.4033 9.54915 58.4049 9.45801 58.4082C9.37012 58.4115 9.27734 58.4147 9.17969 58.418C9.08203 58.4212 8.98438 58.4261 8.88672 58.4326C8.79232 58.4391 8.70768 58.444 8.63281 58.4473L8.66211 63.9258ZM16.5967 58.5547C16.3688 58.5547 16.1328 58.5563 15.8887 58.5596C15.6445 58.5628 15.3776 58.5645 15.0879 58.5645C15.0098 58.5645 14.9414 58.5465 14.8828 58.5107C14.8242 58.4749 14.7754 58.4294 14.7363 58.374C14.6973 58.3154 14.668 58.2503 14.6484 58.1787C14.6289 58.1071 14.6191 58.0355 14.6191 57.9639C14.6191 57.7718 14.6729 57.64 14.7803 57.5684C14.8877 57.4935 15.0618 57.4561 15.3027 57.4561H19.1992C19.2643 57.4561 19.3311 57.4642 19.3994 57.4805C19.471 57.4967 19.5345 57.526 19.5898 57.5684C19.6484 57.6107 19.6956 57.666 19.7314 57.7344C19.7705 57.8027 19.79 57.8906 19.79 57.998C19.79 58.0762 19.777 58.151 19.751 58.2227C19.7249 58.2943 19.6891 58.3561 19.6436 58.4082C19.6012 58.4603 19.5492 58.5026 19.4873 58.5352C19.4287 58.5677 19.3652 58.584 19.2969 58.584C19.2448 58.584 19.1943 58.5791 19.1455 58.5693C19.0967 58.5596 19.0446 58.5547 18.9893 58.5547H17.7295L17.7148 64.0625C17.7148 64.1406 17.7197 64.2171 17.7295 64.292C17.7425 64.3669 17.749 64.4482 17.749 64.5361C17.749 64.6077 17.7425 64.6794 17.7295 64.751C17.7165 64.8226 17.6888 64.8877 17.6465 64.9463C17.6042 65.0049 17.5439 65.0521 17.4658 65.0879C17.3877 65.127 17.2852 65.1465 17.1582 65.1465C17.0085 65.1465 16.8945 65.1204 16.8164 65.0684C16.7383 65.0195 16.6813 64.9561 16.6455 64.8779C16.613 64.7998 16.5951 64.7135 16.5918 64.6191C16.5885 64.5247 16.5869 64.4336 16.5869 64.3457L16.5967 58.5547ZM20.6836 61.2256C20.6836 60.6462 20.765 60.1172 20.9277 59.6387C21.0938 59.1602 21.3265 58.7484 21.626 58.4033C21.9287 58.0583 22.2917 57.7913 22.7148 57.6025C23.1413 57.4105 23.6133 57.3145 24.1309 57.3145C24.6777 57.3145 25.1595 57.4105 25.5762 57.6025C25.9961 57.7913 26.3477 58.0583 26.6309 58.4033C26.9173 58.7484 27.1338 59.1602 27.2803 59.6387C27.4268 60.1172 27.5 60.6462 27.5 61.2256C27.5 61.7757 27.4202 62.29 27.2607 62.7686C27.1012 63.2438 26.8734 63.6572 26.5771 64.0088C26.2809 64.3604 25.9229 64.637 25.5029 64.8389C25.083 65.0407 24.6126 65.1416 24.0918 65.1416C23.7467 65.1416 23.4229 65.096 23.1201 65.0049C22.8174 64.9137 22.5391 64.7835 22.2852 64.6143C22.0345 64.445 21.8099 64.2432 21.6113 64.0088C21.4128 63.7712 21.2435 63.5075 21.1035 63.2178C20.9668 62.9281 20.8626 62.6156 20.791 62.2803C20.7194 61.945 20.6836 61.5934 20.6836 61.2256ZM21.7969 61.2256C21.7969 61.4697 21.8197 61.7122 21.8652 61.9531C21.9108 62.1908 21.9775 62.4186 22.0654 62.6367C22.1566 62.8516 22.2673 63.0518 22.3975 63.2373C22.5309 63.4196 22.6823 63.5791 22.8516 63.7158C23.0241 63.8493 23.2145 63.9551 23.4229 64.0332C23.6344 64.1081 23.8623 64.1455 24.1064 64.1455C24.3636 64.1455 24.598 64.1081 24.8096 64.0332C25.0212 63.9551 25.2116 63.8493 25.3809 63.7158C25.5501 63.5791 25.6966 63.4196 25.8203 63.2373C25.9473 63.0518 26.0514 62.8516 26.1328 62.6367C26.2174 62.4186 26.2793 62.1908 26.3184 61.9531C26.3607 61.7122 26.3818 61.4697 26.3818 61.2256C26.3818 60.835 26.3363 60.4655 26.2451 60.1172C26.154 59.7656 26.014 59.4564 25.8252 59.1895C25.6396 58.9225 25.4036 58.7109 25.1172 58.5547C24.834 58.3984 24.4971 58.3203 24.1064 58.3203C23.7386 58.3203 23.4115 58.3903 23.125 58.5303C22.8385 58.6702 22.596 58.8672 22.3975 59.1211C22.2021 59.375 22.0524 59.681 21.9482 60.0391C21.8473 60.3939 21.7969 60.7894 21.7969 61.2256ZM29.126 61.4111C29.1227 60.8936 29.1227 60.3743 29.126 59.8535C29.1325 59.3294 29.1357 58.7809 29.1357 58.208C29.1357 58.0713 29.1423 57.9476 29.1553 57.8369C29.1715 57.7262 29.1992 57.6318 29.2383 57.5537C29.2773 57.4756 29.3294 57.417 29.3945 57.3779C29.4629 57.3356 29.5492 57.3145 29.6533 57.3145C29.891 57.3145 30.0586 57.3844 30.1562 57.5244C30.2539 57.6611 30.3027 57.8483 30.3027 58.0859C30.3027 58.1543 30.3011 58.2275 30.2979 58.3057C30.2946 58.3838 30.2913 58.4766 30.2881 58.584C30.2848 58.6914 30.2799 58.8216 30.2734 58.9746C30.2702 59.1276 30.2669 59.3115 30.2637 59.5264C30.2604 59.7412 30.2572 59.9951 30.2539 60.2881C30.2507 60.5811 30.249 60.9229 30.249 61.3135C30.249 61.5479 30.2555 61.7806 30.2686 62.0117C30.2848 62.2396 30.3141 62.4577 30.3564 62.666C30.402 62.8711 30.4655 63.0615 30.5469 63.2373C30.6283 63.4131 30.7324 63.5661 30.8594 63.6963C30.9896 63.8232 31.1475 63.9225 31.333 63.9941C31.5218 64.0658 31.7448 64.1016 32.002 64.1016C32.2982 64.1016 32.5488 64.0413 32.7539 63.9209C32.959 63.8005 33.125 63.6247 33.252 63.3936C33.3822 63.1624 33.4749 62.8776 33.5303 62.5391C33.5889 62.1973 33.6182 61.8066 33.6182 61.3672C33.6182 60.5762 33.6117 59.9072 33.5986 59.3604C33.5856 58.8135 33.5758 58.418 33.5693 58.1738C33.5661 58.125 33.5645 58.0745 33.5645 58.0225C33.5645 57.9704 33.5645 57.9395 33.5645 57.9297C33.5645 57.6986 33.6149 57.5391 33.7158 57.4512C33.82 57.36 33.9583 57.3145 34.1309 57.3145C34.2415 57.3145 34.3343 57.3307 34.4092 57.3633C34.4873 57.3958 34.5492 57.4382 34.5947 57.4902C34.6403 57.5423 34.6729 57.6009 34.6924 57.666C34.7119 57.7311 34.7217 57.7946 34.7217 57.8564C34.7217 57.9639 34.7168 58.0745 34.707 58.1885C34.7005 58.2992 34.6973 58.4147 34.6973 58.5352C34.6973 58.7956 34.6989 59.0365 34.7021 59.2578C34.7054 59.4792 34.7103 59.6908 34.7168 59.8926C34.7168 60.127 34.7201 60.3646 34.7266 60.6055C34.7331 60.8431 34.7363 61.1003 34.7363 61.377C34.7363 61.9727 34.6794 62.5049 34.5654 62.9736C34.4548 63.4391 34.2839 63.833 34.0527 64.1553C33.8216 64.4775 33.5303 64.7233 33.1787 64.8926C32.8304 65.0618 32.4202 65.1465 31.9482 65.1465C31.7106 65.1465 31.4762 65.1237 31.2451 65.0781C31.014 65.0358 30.7943 64.9609 30.5859 64.8535C30.3776 64.7461 30.1839 64.6012 30.0049 64.4189C29.8291 64.2367 29.6761 64.0072 29.5459 63.7305C29.4157 63.4538 29.3132 63.125 29.2383 62.7441C29.1634 62.3633 29.126 61.9189 29.126 61.4111ZM36.665 64.458C36.665 64.3864 36.6683 64.3164 36.6748 64.248C36.6813 64.1797 36.6878 64.1162 36.6943 64.0576C36.6943 63.6051 36.6943 63.1885 36.6943 62.8076C36.6943 62.4268 36.6943 62.0719 36.6943 61.7432C36.6943 61.4111 36.6943 61.1003 36.6943 60.8105C36.6943 60.5208 36.6943 60.2409 36.6943 59.9707C36.6943 59.6973 36.6943 59.4303 36.6943 59.1699C36.6976 58.9062 36.6992 58.6377 36.6992 58.3643C36.6829 58.3187 36.6667 58.2552 36.6504 58.1738C36.6374 58.0924 36.6309 58.016 36.6309 57.9443C36.6309 57.876 36.6406 57.8076 36.6602 57.7393C36.6829 57.6709 36.7155 57.6107 36.7578 57.5586C36.8034 57.5033 36.8587 57.4593 36.9238 57.4268C36.9889 57.3942 37.0638 57.3779 37.1484 57.3779C37.2852 57.3779 37.4235 57.3861 37.5635 57.4023C37.7035 57.4186 37.8613 57.4268 38.0371 57.4268C38.1836 57.4268 38.3301 57.4202 38.4766 57.4072C38.623 57.391 38.7793 57.3812 38.9453 57.3779C39.4368 57.3779 39.8812 57.4268 40.2783 57.5244C40.6787 57.6221 41.0189 57.7734 41.2988 57.9785C41.582 58.1836 41.8001 58.4456 41.9531 58.7646C42.1061 59.0804 42.1826 59.458 42.1826 59.8975C42.1826 60.3141 42.124 60.6852 42.0068 61.0107C41.8929 61.333 41.7448 61.6146 41.5625 61.8555C41.3835 62.0964 41.1816 62.2982 40.957 62.4609C40.7357 62.6204 40.5192 62.7425 40.3076 62.8271C40.3369 63.0029 40.3825 63.1689 40.4443 63.3252C40.5094 63.4782 40.5908 63.6133 40.6885 63.7305C40.7894 63.8477 40.9066 63.9404 41.04 64.0088C41.1735 64.0771 41.3232 64.1113 41.4893 64.1113C41.613 64.1113 41.7253 64.0918 41.8262 64.0527C41.9303 64.0137 42.0199 63.9372 42.0947 63.8232C42.1403 63.7581 42.1956 63.7012 42.2607 63.6523C42.3258 63.6003 42.4089 63.5742 42.5098 63.5742C42.6855 63.5742 42.8223 63.623 42.9199 63.7207C43.0176 63.8184 43.0664 63.9421 43.0664 64.0918C43.0664 64.2318 43.0257 64.3652 42.9443 64.4922C42.8662 64.6191 42.7539 64.7314 42.6074 64.8291C42.4642 64.9235 42.29 64.9984 42.085 65.0537C41.8799 65.1123 41.652 65.1416 41.4014 65.1416C41.1702 65.1416 40.9603 65.1074 40.7715 65.0391C40.5859 64.974 40.4183 64.8861 40.2686 64.7754C40.1221 64.6615 39.9919 64.5329 39.8779 64.3896C39.764 64.2432 39.6663 64.0918 39.585 63.9355C39.5036 63.776 39.4368 63.6182 39.3848 63.4619C39.3327 63.3057 39.292 63.1592 39.2627 63.0225C39.2236 63.0225 39.1715 63.0225 39.1064 63.0225C39.0413 63.0225 38.9746 63.0225 38.9062 63.0225C38.8379 63.0225 38.7695 63.0225 38.7012 63.0225C38.6361 63.0192 38.5824 63.0176 38.54 63.0176C38.4456 63.0143 38.3285 63.0127 38.1885 63.0127C38.0518 63.0094 37.9264 63.0078 37.8125 63.0078V63.7207C37.819 63.8737 37.8385 64.0234 37.8711 64.1699C37.9036 64.3132 37.9199 64.4613 37.9199 64.6143C37.9199 64.7087 37.9004 64.7884 37.8613 64.8535C37.8255 64.9186 37.7783 64.9723 37.7197 65.0146C37.6611 65.0602 37.5977 65.0928 37.5293 65.1123C37.4609 65.1318 37.3958 65.1416 37.334 65.1416C37.2363 65.1416 37.1468 65.1237 37.0654 65.0879C36.984 65.0553 36.9141 65.0098 36.8555 64.9512C36.7969 64.8893 36.7497 64.8177 36.7139 64.7363C36.6813 64.6517 36.665 64.5589 36.665 64.458ZM37.8076 61.958C37.8923 61.9613 37.9915 61.9645 38.1055 61.9678C38.2194 61.971 38.3285 61.9743 38.4326 61.9775C38.5368 61.9808 38.6296 61.984 38.7109 61.9873C38.7923 61.9873 38.8444 61.9873 38.8672 61.9873C39.3066 61.9873 39.6663 61.9271 39.9463 61.8066C40.2295 61.6862 40.4508 61.5267 40.6104 61.3281C40.7699 61.1296 40.8789 60.9017 40.9375 60.6445C40.9993 60.3874 41.0303 60.1237 41.0303 59.8535C41.0303 59.6159 40.9928 59.4157 40.918 59.2529C40.8431 59.0869 40.7438 58.9502 40.6201 58.8428C40.4964 58.7354 40.3564 58.6507 40.2002 58.5889C40.0439 58.527 39.8844 58.4814 39.7217 58.4521C39.5622 58.4229 39.4043 58.4049 39.248 58.3984C39.0951 58.3919 38.96 58.3887 38.8428 58.3887C38.6768 58.3887 38.5075 58.3919 38.335 58.3984C38.1657 58.4017 37.9818 58.4049 37.7832 58.4082C37.7767 58.5319 37.7718 58.6442 37.7686 58.7451C37.7686 58.846 37.7669 58.9453 37.7637 59.043C37.7637 59.1374 37.7637 59.235 37.7637 59.3359C37.7637 59.4336 37.7637 59.5443 37.7637 59.668C37.7637 59.8893 37.7637 60.096 37.7637 60.2881C37.7669 60.4769 37.7702 60.6624 37.7734 60.8447C37.7767 61.0238 37.7799 61.2044 37.7832 61.3867C37.7897 61.569 37.7979 61.7594 37.8076 61.958ZM40.0977 62.8955C40.0944 62.8955 40.0928 62.8971 40.0928 62.9004L40.0977 62.8955ZM40.0879 62.9004H40.0928H40.0879ZM44.0918 63.2471C44.1081 62.9834 44.1618 62.7832 44.2529 62.6465C44.3473 62.5065 44.5117 62.4365 44.7461 62.4365C44.8926 62.4365 45.0179 62.4788 45.1221 62.5635C45.2262 62.6449 45.2783 62.7588 45.2783 62.9053C45.2783 62.9899 45.2702 63.0745 45.2539 63.1592C45.2376 63.2438 45.2327 63.3317 45.2393 63.4229C45.2523 63.5335 45.3011 63.6344 45.3857 63.7256C45.4704 63.8167 45.5778 63.8965 45.708 63.9648C45.8382 64.0299 45.9863 64.082 46.1523 64.1211C46.3184 64.1569 46.4876 64.1748 46.6602 64.1748C46.8359 64.1748 47.0101 64.1602 47.1826 64.1309C47.3584 64.0983 47.5163 64.0397 47.6562 63.9551C47.7995 63.8704 47.915 63.7549 48.0029 63.6084C48.0908 63.4619 48.1348 63.2715 48.1348 63.0371C48.1348 62.8841 48.0973 62.7409 48.0225 62.6074C47.9476 62.4707 47.8516 62.347 47.7344 62.2363C47.6172 62.1224 47.487 62.0199 47.3438 61.9287C47.2038 61.8376 47.0687 61.7578 46.9385 61.6895C46.7529 61.5951 46.5625 61.5039 46.3672 61.416C46.1751 61.3249 45.9863 61.2305 45.8008 61.1328C45.6185 61.0319 45.4443 60.9229 45.2783 60.8057C45.1156 60.6852 44.9723 60.5452 44.8486 60.3857C44.7249 60.2262 44.6273 60.0423 44.5557 59.834C44.484 59.6224 44.4482 59.3783 44.4482 59.1016C44.4482 58.7923 44.5133 58.5254 44.6436 58.3008C44.777 58.0762 44.9512 57.8906 45.166 57.7441C45.3809 57.5977 45.6266 57.4902 45.9033 57.4219C46.1833 57.3503 46.4697 57.3145 46.7627 57.3145C47.0231 57.3145 47.2754 57.3372 47.5195 57.3828C47.7637 57.4284 47.9818 57.5033 48.1738 57.6074C48.3659 57.7083 48.5254 57.8451 48.6523 58.0176C48.7793 58.1868 48.8558 58.3952 48.8818 58.6426C48.8883 58.7337 48.877 58.8151 48.8477 58.8867C48.8184 58.9551 48.7777 59.0137 48.7256 59.0625C48.6735 59.1081 48.6133 59.1439 48.5449 59.1699C48.4798 59.1927 48.4131 59.2041 48.3447 59.2041C48.2406 59.2041 48.1527 59.1878 48.0811 59.1553C48.0094 59.1227 47.9508 59.082 47.9053 59.0332C47.8597 58.9844 47.8255 58.929 47.8027 58.8672C47.7799 58.8053 47.7653 58.7451 47.7588 58.6865C47.71 58.6084 47.6465 58.5449 47.5684 58.4961C47.4902 58.444 47.4023 58.4033 47.3047 58.374C47.2103 58.3415 47.111 58.3203 47.0068 58.3105C46.9027 58.2975 46.8018 58.291 46.7041 58.291C46.5674 58.291 46.4307 58.3057 46.2939 58.335C46.1605 58.3643 46.0384 58.4115 45.9277 58.4766C45.8171 58.5417 45.7275 58.6247 45.6592 58.7256C45.5908 58.8265 45.5566 58.9502 45.5566 59.0967C45.5566 59.2692 45.5973 59.4222 45.6787 59.5557C45.7601 59.6891 45.8626 59.8079 45.9863 59.9121C46.11 60.0163 46.2467 60.1107 46.3965 60.1953C46.5495 60.2799 46.6976 60.3581 46.8408 60.4297C47.0133 60.5176 47.1924 60.612 47.3779 60.7129C47.5635 60.8105 47.7441 60.918 47.9199 61.0352C48.099 61.1491 48.2682 61.2744 48.4277 61.4111C48.5872 61.5479 48.7272 61.7008 48.8477 61.8701C48.9681 62.0361 49.0625 62.2184 49.1309 62.417C49.2025 62.6156 49.2383 62.8353 49.2383 63.0762C49.2383 63.3333 49.2025 63.5628 49.1309 63.7646C49.0592 63.9665 48.9616 64.1439 48.8379 64.2969C48.7142 64.4499 48.5693 64.5801 48.4033 64.6875C48.2373 64.7949 48.0583 64.8828 47.8662 64.9512C47.6742 65.0195 47.474 65.0684 47.2656 65.0977C47.0605 65.1302 46.8555 65.1465 46.6504 65.1465C46.4779 65.1465 46.2923 65.1318 46.0938 65.1025C45.8984 65.0732 45.7048 65.0277 45.5127 64.9658C45.3206 64.9007 45.1367 64.8193 44.9609 64.7217C44.7884 64.6208 44.6354 64.5003 44.502 64.3604C44.3717 64.2171 44.2692 64.0544 44.1943 63.8721C44.1195 63.6865 44.0853 63.4782 44.0918 63.2471Z" fill="#7E53C8"/>
<path d="M4.75098 51.6875C4.75098 51.5508 4.76074 51.4352 4.78027 51.3408C4.7998 51.2464 4.8112 51.2025 4.81445 51.209C4.82096 50.8542 4.82585 50.4945 4.8291 50.1299C4.83561 49.7653 4.83887 49.3796 4.83887 48.9727C4.83887 48.7155 4.83887 48.4372 4.83887 48.1377C4.83887 47.835 4.83561 47.5306 4.8291 47.2246C4.82585 46.9154 4.81934 46.6126 4.80957 46.3164C4.7998 46.0169 4.78678 45.7402 4.77051 45.4863C4.75749 45.4115 4.74772 45.3447 4.74121 45.2861C4.7347 45.2243 4.73145 45.1592 4.73145 45.0908C4.73145 44.9313 4.76562 44.806 4.83398 44.7148C4.90234 44.6204 5.01302 44.5553 5.16602 44.5195C5.23112 44.4642 5.30273 44.4268 5.38086 44.4072C5.46224 44.3844 5.54036 44.373 5.61523 44.373C5.69336 44.373 5.76335 44.3958 5.8252 44.4414C5.8903 44.487 5.94727 44.5407 5.99609 44.6025C6.04492 44.6644 6.08561 44.7295 6.11816 44.7979C6.15072 44.863 6.1735 44.9167 6.18652 44.959C6.28743 45.1087 6.40788 45.2796 6.54785 45.4717C6.69108 45.6637 6.8457 45.8704 7.01172 46.0918C7.18099 46.3099 7.36003 46.5394 7.54883 46.7803C7.73763 47.0179 7.92806 47.2588 8.12012 47.5029C8.31543 47.7471 8.50911 47.9912 8.70117 48.2354C8.89323 48.4762 9.07552 48.709 9.24805 48.9336C9.42057 49.1582 9.58171 49.3714 9.73145 49.5732C9.88118 49.7718 10.0098 49.9508 10.1172 50.1104C10.1172 49.4137 10.1139 48.8148 10.1074 48.3135C10.1042 47.8089 10.0993 47.3809 10.0928 47.0293C10.0863 46.6745 10.0781 46.3831 10.0684 46.1553C10.0586 45.9274 10.0505 45.7386 10.0439 45.5889C10.0374 45.4391 10.0309 45.3171 10.0244 45.2227C10.0212 45.125 10.0195 45.0322 10.0195 44.9443C10.0195 44.8141 10.0326 44.7083 10.0586 44.627C10.0879 44.5423 10.127 44.4772 10.1758 44.4316C10.2279 44.3861 10.2913 44.3551 10.3662 44.3389C10.4411 44.3226 10.5273 44.3145 10.625 44.3145C10.752 44.3145 10.8512 44.3405 10.9229 44.3926C10.9945 44.4447 11.0482 44.5114 11.084 44.5928C11.123 44.6709 11.1458 44.7604 11.1523 44.8613C11.1621 44.959 11.167 45.055 11.167 45.1494V50.75C11.167 50.8672 11.1735 50.986 11.1865 51.1064C11.1995 51.2236 11.2061 51.349 11.2061 51.4824C11.2061 51.6094 11.1963 51.7152 11.1768 51.7998C11.1572 51.8812 11.1247 51.9479 11.0791 52C11.0368 52.0521 10.9798 52.0879 10.9082 52.1074C10.8398 52.1302 10.7568 52.1416 10.6592 52.1416C10.4769 52.1416 10.3304 52.096 10.2197 52.0049C10.1123 51.9137 10.0358 51.8031 9.99023 51.6729C9.68099 51.2497 9.36686 50.833 9.04785 50.4229C8.7321 50.0094 8.41309 49.5977 8.09082 49.1875C7.76855 48.7741 7.44466 48.359 7.11914 47.9424C6.79362 47.5225 6.46973 47.096 6.14746 46.6631L5.85449 46.2041C5.85775 46.7021 5.861 47.1465 5.86426 47.5371C5.86751 47.9245 5.87077 48.2712 5.87402 48.5771C5.87728 48.8799 5.88053 49.1484 5.88379 49.3828C5.88704 49.6139 5.88867 49.8223 5.88867 50.0078C5.89193 50.1901 5.89355 50.3577 5.89355 50.5107C5.89681 50.6605 5.89844 50.807 5.89844 50.9502C5.90169 51.0348 5.90658 51.126 5.91309 51.2236C5.92285 51.318 5.92773 51.4108 5.92773 51.502C5.92773 51.5866 5.9196 51.668 5.90332 51.7461C5.8903 51.8242 5.86263 51.8926 5.82031 51.9512C5.77799 52.0098 5.71777 52.0553 5.63965 52.0879C5.56478 52.1237 5.46549 52.1416 5.3418 52.1416C5.17578 52.1416 5.03581 52.1009 4.92188 52.0195C4.80794 51.9382 4.75098 51.8275 4.75098 51.6875ZM12.9004 48.3086C12.9004 47.6413 12.9964 47.0586 13.1885 46.5605C13.3805 46.0625 13.6458 45.6475 13.9844 45.3154C14.3229 44.9834 14.7233 44.7344 15.1855 44.5684C15.6478 44.4023 16.1507 44.3193 16.6943 44.3193C16.8343 44.3193 16.9922 44.3226 17.168 44.3291C17.3438 44.3324 17.5228 44.3438 17.7051 44.3633C17.8906 44.3828 18.0729 44.4105 18.252 44.4463C18.431 44.4821 18.597 44.5293 18.75 44.5879C18.8704 44.6335 18.9714 44.6986 19.0527 44.7832C19.1341 44.8678 19.1748 44.9899 19.1748 45.1494C19.1748 45.335 19.1276 45.4847 19.0332 45.5986C18.9421 45.7093 18.8346 45.7646 18.7109 45.7646C18.6849 45.7646 18.6507 45.7614 18.6084 45.7549C18.5661 45.7484 18.5303 45.737 18.501 45.7207C18.374 45.6523 18.2194 45.597 18.0371 45.5547C17.8581 45.5124 17.6725 45.4782 17.4805 45.4521C17.2884 45.4261 17.1012 45.4082 16.9189 45.3984C16.7367 45.3887 16.5804 45.3838 16.4502 45.3838C16.2712 45.3838 16.0872 45.4066 15.8984 45.4521C15.7096 45.4945 15.5241 45.5628 15.3418 45.6572C15.1628 45.7516 14.9919 45.8721 14.8291 46.0186C14.6696 46.165 14.5296 46.3392 14.4092 46.541C14.2887 46.7428 14.1927 46.9756 14.1211 47.2393C14.0495 47.4997 14.0137 47.7926 14.0137 48.1182C14.0137 48.499 14.0576 48.8359 14.1455 49.1289C14.2367 49.4219 14.3604 49.6774 14.5166 49.8955C14.6729 50.1104 14.8568 50.2926 15.0684 50.4424C15.2799 50.5889 15.5078 50.7077 15.752 50.7988C15.9993 50.89 16.2565 50.9551 16.5234 50.9941C16.7904 51.0332 17.0573 51.0527 17.3242 51.0527C17.4414 51.0527 17.5732 51.0511 17.7197 51.0479C17.8695 51.0413 18.0176 51.0251 18.1641 50.999C18.1641 50.68 18.1624 50.4082 18.1592 50.1836C18.1592 49.959 18.1576 49.7588 18.1543 49.583C18.151 49.4072 18.1462 49.2461 18.1396 49.0996C18.1364 48.9531 18.1315 48.7969 18.125 48.6309C18.125 48.5137 18.1169 48.3965 18.1006 48.2793C18.0843 48.1589 18.0762 48.0303 18.0762 47.8936C18.0762 47.8447 18.0859 47.7926 18.1055 47.7373C18.1283 47.6787 18.1624 47.625 18.208 47.5762C18.2568 47.5241 18.3203 47.4818 18.3984 47.4492C18.4766 47.4134 18.5742 47.3955 18.6914 47.3955C18.8835 47.3955 19.0316 47.4411 19.1357 47.5322C19.2432 47.6201 19.2969 47.7406 19.2969 47.8936C19.2969 47.9587 19.2952 48.0221 19.292 48.084C19.2887 48.1426 19.2871 48.2061 19.2871 48.2744C19.2839 48.3786 19.279 48.5055 19.2725 48.6553C19.2692 48.8018 19.266 48.9906 19.2627 49.2217C19.2594 49.4495 19.2562 49.7279 19.2529 50.0566C19.2497 50.3822 19.248 50.7728 19.248 51.2285C19.2448 51.4141 19.2204 51.5589 19.1748 51.6631C19.1292 51.7673 19.0674 51.8454 18.9893 51.8975C18.9111 51.9463 18.82 51.9756 18.7158 51.9854C18.6149 51.9951 18.5091 52 18.3984 52C18.304 52 18.2048 52.0049 18.1006 52.0146C17.9964 52.0244 17.8906 52.0358 17.7832 52.0488C17.6758 52.0618 17.57 52.0732 17.4658 52.083C17.3649 52.0928 17.2689 52.0977 17.1777 52.0977C16.4844 52.0977 15.8708 51.9951 15.3369 51.79C14.8063 51.585 14.3604 51.3099 13.999 50.9648C13.6377 50.6165 13.3643 50.2145 13.1787 49.7588C12.9932 49.2998 12.9004 48.8164 12.9004 48.3086ZM21.3574 51.4482C21.3574 51.3929 21.3639 51.3343 21.377 51.2725C21.3932 51.2106 21.4095 51.1536 21.4258 51.1016L21.4697 50.9453L21.3574 45.1055C21.3574 44.946 21.3753 44.8223 21.4111 44.7344C21.4502 44.6465 21.499 44.5814 21.5576 44.5391C21.6162 44.4967 21.6829 44.4723 21.7578 44.4658C21.8359 44.4593 21.9141 44.4561 21.9922 44.4561H24.5654C24.624 44.4495 24.6891 44.4414 24.7607 44.4316C24.8356 44.4186 24.8877 44.4121 24.917 44.4121C25.0407 44.4121 25.14 44.4235 25.2148 44.4463C25.293 44.4691 25.3532 44.5033 25.3955 44.5488C25.4411 44.5911 25.4704 44.6449 25.4834 44.71C25.4997 44.7751 25.5078 44.8516 25.5078 44.9395C25.5078 45.0632 25.4915 45.1624 25.459 45.2373C25.4297 45.3122 25.3874 45.3708 25.332 45.4131C25.2799 45.4521 25.2181 45.4782 25.1465 45.4912C25.0749 45.5042 24.9984 45.5107 24.917 45.5107C24.8812 45.5107 24.834 45.5107 24.7754 45.5107C24.7168 45.5075 24.6549 45.5026 24.5898 45.4961C24.2741 45.4961 24.0186 45.4961 23.8232 45.4961C23.6312 45.4961 23.4766 45.4977 23.3594 45.501C23.2454 45.501 23.1576 45.501 23.0957 45.501C23.0371 45.501 22.985 45.501 22.9395 45.501H22.4854V47.0488C22.5049 47.0488 22.5277 47.0505 22.5537 47.0537C22.583 47.0537 22.627 47.0537 22.6855 47.0537C22.7441 47.0537 22.8239 47.0537 22.9248 47.0537C23.029 47.0537 23.1673 47.0537 23.3398 47.0537C23.5124 47.0537 23.7256 47.0537 23.9795 47.0537C24.2334 47.0537 24.541 47.0537 24.9023 47.0537C24.9382 47.0537 24.9788 47.0521 25.0244 47.0488C25.07 47.0456 25.1156 47.0407 25.1611 47.0342C25.2197 47.0277 25.2881 47.0212 25.3662 47.0146C25.4443 47.0081 25.529 47.0049 25.6201 47.0049C25.708 47.0049 25.7861 47.0228 25.8545 47.0586C25.9229 47.0944 25.9798 47.14 26.0254 47.1953C26.0742 47.2474 26.11 47.3044 26.1328 47.3662C26.1589 47.4281 26.1719 47.4867 26.1719 47.542C26.1719 47.7178 26.1133 47.8464 25.9961 47.9277C25.8822 48.0091 25.734 48.0498 25.5518 48.0498L22.4854 48.0547V50.9795C22.8076 50.9795 23.1315 50.9844 23.457 50.9941C23.7826 51.0039 24.1227 51.0088 24.4775 51.0088C24.5752 51.0088 24.6647 51.0039 24.7461 50.9941C24.8275 50.9844 24.9056 50.973 24.9805 50.96C25.0488 50.9502 25.1172 50.9421 25.1855 50.9355C25.2572 50.9258 25.3353 50.9209 25.4199 50.9209C25.5176 50.9209 25.6071 50.929 25.6885 50.9453C25.7731 50.9583 25.8464 50.9844 25.9082 51.0234C25.9701 51.0592 26.0189 51.1097 26.0547 51.1748C26.0905 51.2367 26.1084 51.3164 26.1084 51.4141C26.1084 51.5573 26.084 51.668 26.0352 51.7461C25.9863 51.8242 25.9196 51.8828 25.835 51.9219C25.7536 51.9577 25.6592 51.9805 25.5518 51.9902C25.4476 51.9967 25.3385 52 25.2246 52H21.9385C21.8538 52 21.7757 51.9902 21.7041 51.9707C21.6357 51.9512 21.5755 51.9202 21.5234 51.8779C21.4714 51.8324 21.4307 51.7754 21.4014 51.707C21.3721 51.6354 21.3574 51.5492 21.3574 51.4482ZM27.8369 51.6875C27.8369 51.5508 27.8467 51.4352 27.8662 51.3408C27.8857 51.2464 27.8971 51.2025 27.9004 51.209C27.9069 50.8542 27.9118 50.4945 27.915 50.1299C27.9215 49.7653 27.9248 49.3796 27.9248 48.9727C27.9248 48.7155 27.9248 48.4372 27.9248 48.1377C27.9248 47.835 27.9215 47.5306 27.915 47.2246C27.9118 46.9154 27.9053 46.6126 27.8955 46.3164C27.8857 46.0169 27.8727 45.7402 27.8564 45.4863C27.8434 45.4115 27.8337 45.3447 27.8271 45.2861C27.8206 45.2243 27.8174 45.1592 27.8174 45.0908C27.8174 44.9313 27.8516 44.806 27.9199 44.7148C27.9883 44.6204 28.099 44.5553 28.252 44.5195C28.3171 44.4642 28.3887 44.4268 28.4668 44.4072C28.5482 44.3844 28.6263 44.373 28.7012 44.373C28.7793 44.373 28.8493 44.3958 28.9111 44.4414C28.9762 44.487 29.0332 44.5407 29.082 44.6025C29.1309 44.6644 29.1715 44.7295 29.2041 44.7979C29.2367 44.863 29.2594 44.9167 29.2725 44.959C29.3734 45.1087 29.4938 45.2796 29.6338 45.4717C29.777 45.6637 29.9316 45.8704 30.0977 46.0918C30.2669 46.3099 30.446 46.5394 30.6348 46.7803C30.8236 47.0179 31.014 47.2588 31.2061 47.5029C31.4014 47.7471 31.5951 47.9912 31.7871 48.2354C31.9792 48.4762 32.1615 48.709 32.334 48.9336C32.5065 49.1582 32.6676 49.3714 32.8174 49.5732C32.9671 49.7718 33.0957 49.9508 33.2031 50.1104C33.2031 49.4137 33.1999 48.8148 33.1934 48.3135C33.1901 47.8089 33.1852 47.3809 33.1787 47.0293C33.1722 46.6745 33.1641 46.3831 33.1543 46.1553C33.1445 45.9274 33.1364 45.7386 33.1299 45.5889C33.1234 45.4391 33.1169 45.3171 33.1104 45.2227C33.1071 45.125 33.1055 45.0322 33.1055 44.9443C33.1055 44.8141 33.1185 44.7083 33.1445 44.627C33.1738 44.5423 33.2129 44.4772 33.2617 44.4316C33.3138 44.3861 33.3773 44.3551 33.4521 44.3389C33.527 44.3226 33.6133 44.3145 33.7109 44.3145C33.8379 44.3145 33.9372 44.3405 34.0088 44.3926C34.0804 44.4447 34.1341 44.5114 34.1699 44.5928C34.209 44.6709 34.2318 44.7604 34.2383 44.8613C34.248 44.959 34.2529 45.055 34.2529 45.1494V50.75C34.2529 50.8672 34.2594 50.986 34.2725 51.1064C34.2855 51.2236 34.292 51.349 34.292 51.4824C34.292 51.6094 34.2822 51.7152 34.2627 51.7998C34.2432 51.8812 34.2106 51.9479 34.165 52C34.1227 52.0521 34.0658 52.0879 33.9941 52.1074C33.9258 52.1302 33.8428 52.1416 33.7451 52.1416C33.5628 52.1416 33.4163 52.096 33.3057 52.0049C33.1982 51.9137 33.1217 51.8031 33.0762 51.6729C32.7669 51.2497 32.4528 50.833 32.1338 50.4229C31.818 50.0094 31.499 49.5977 31.1768 49.1875C30.8545 48.7741 30.5306 48.359 30.2051 47.9424C29.8796 47.5225 29.5557 47.096 29.2334 46.6631L28.9404 46.2041C28.9437 46.7021 28.9469 47.1465 28.9502 47.5371C28.9535 47.9245 28.9567 48.2712 28.96 48.5771C28.9632 48.8799 28.9665 49.1484 28.9697 49.3828C28.973 49.6139 28.9746 49.8223 28.9746 50.0078C28.9779 50.1901 28.9795 50.3577 28.9795 50.5107C28.9827 50.6605 28.9844 50.807 28.9844 50.9502C28.9876 51.0348 28.9925 51.126 28.999 51.2236C29.0088 51.318 29.0137 51.4108 29.0137 51.502C29.0137 51.5866 29.0055 51.668 28.9893 51.7461C28.9762 51.8242 28.9486 51.8926 28.9062 51.9512C28.8639 52.0098 28.8037 52.0553 28.7256 52.0879C28.6507 52.1237 28.5514 52.1416 28.4277 52.1416C28.2617 52.1416 28.1217 52.1009 28.0078 52.0195C27.8939 51.9382 27.8369 51.8275 27.8369 51.6875ZM36.5967 51.6094C36.5967 51.4434 36.6081 51.2806 36.6309 51.1211C36.6569 50.9583 36.6699 50.7858 36.6699 50.6035C36.6699 49.7734 36.6618 48.9385 36.6455 48.0986C36.6325 47.2588 36.626 46.3962 36.626 45.5107C36.626 45.4196 36.6162 45.3285 36.5967 45.2373C36.5771 45.1429 36.5674 45.042 36.5674 44.9346C36.5674 44.8499 36.5788 44.7702 36.6016 44.6953C36.6243 44.6204 36.6634 44.5553 36.7188 44.5C36.7741 44.4414 36.8506 44.3958 36.9482 44.3633C37.0459 44.3307 37.168 44.3145 37.3145 44.3145C37.4609 44.3145 37.5765 44.3698 37.6611 44.4805C37.7458 44.5911 37.7881 44.7393 37.7881 44.9248C37.7881 44.9801 37.7832 45.0355 37.7734 45.0908C37.7637 45.1429 37.7539 45.1982 37.7441 45.2568C37.7376 45.5368 37.7327 45.8379 37.7295 46.1602C37.7262 46.4824 37.7246 46.8519 37.7246 47.2686C37.7246 47.6396 37.7262 48.0189 37.7295 48.4062C37.7327 48.7936 37.7376 49.1663 37.7441 49.5244C37.7507 49.8825 37.7588 50.2178 37.7686 50.5303C37.7816 50.8395 37.7962 51.1064 37.8125 51.3311V51.3262C37.819 51.375 37.8239 51.4222 37.8271 51.4678C37.8337 51.5101 37.8369 51.554 37.8369 51.5996C37.8369 51.6777 37.8271 51.751 37.8076 51.8193C37.7913 51.8844 37.762 51.9414 37.7197 51.9902C37.6774 52.0391 37.6188 52.0765 37.5439 52.1025C37.4691 52.1286 37.3763 52.1416 37.2656 52.1416C37.1354 52.1416 37.0264 52.1302 36.9385 52.1074C36.8538 52.0846 36.7855 52.0505 36.7334 52.0049C36.6846 51.9593 36.6488 51.904 36.626 51.8389C36.6064 51.7705 36.5967 51.694 36.5967 51.6094ZM39.8438 48.2256C39.8438 47.6462 39.9251 47.1172 40.0879 46.6387C40.2539 46.1602 40.4867 45.7484 40.7861 45.4033C41.0889 45.0583 41.4518 44.7913 41.875 44.6025C42.3014 44.4105 42.7734 44.3145 43.291 44.3145C43.8379 44.3145 44.3197 44.4105 44.7363 44.6025C45.1562 44.7913 45.5078 45.0583 45.791 45.4033C46.0775 45.7484 46.2939 46.1602 46.4404 46.6387C46.5869 47.1172 46.6602 47.6462 46.6602 48.2256C46.6602 48.7757 46.5804 49.29 46.4209 49.7686C46.2614 50.2438 46.0335 50.6572 45.7373 51.0088C45.4411 51.3604 45.083 51.637 44.6631 51.8389C44.2432 52.0407 43.7728 52.1416 43.252 52.1416C42.9069 52.1416 42.583 52.096 42.2803 52.0049C41.9775 51.9137 41.6992 51.7835 41.4453 51.6143C41.1947 51.445 40.9701 51.2432 40.7715 51.0088C40.5729 50.7712 40.4036 50.5075 40.2637 50.2178C40.127 49.9281 40.0228 49.6156 39.9512 49.2803C39.8796 48.945 39.8438 48.5934 39.8438 48.2256ZM40.957 48.2256C40.957 48.4697 40.9798 48.7122 41.0254 48.9531C41.071 49.1908 41.1377 49.4186 41.2256 49.6367C41.3167 49.8516 41.4274 50.0518 41.5576 50.2373C41.6911 50.4196 41.8424 50.5791 42.0117 50.7158C42.1842 50.8493 42.3747 50.9551 42.583 51.0332C42.7946 51.1081 43.0225 51.1455 43.2666 51.1455C43.5238 51.1455 43.7581 51.1081 43.9697 51.0332C44.1813 50.9551 44.3717 50.8493 44.541 50.7158C44.7103 50.5791 44.8568 50.4196 44.9805 50.2373C45.1074 50.0518 45.2116 49.8516 45.293 49.6367C45.3776 49.4186 45.4395 49.1908 45.4785 48.9531C45.5208 48.7122 45.542 48.4697 45.542 48.2256C45.542 47.835 45.4964 47.4655 45.4053 47.1172C45.3141 46.7656 45.1742 46.4564 44.9854 46.1895C44.7998 45.9225 44.5638 45.7109 44.2773 45.5547C43.9941 45.3984 43.6572 45.3203 43.2666 45.3203C42.8988 45.3203 42.5716 45.3903 42.2852 45.5303C41.9987 45.6702 41.7562 45.8672 41.5576 46.1211C41.3623 46.375 41.2126 46.681 41.1084 47.0391C41.0075 47.3939 40.957 47.7894 40.957 48.2256ZM48.2861 48.4111C48.2829 47.8936 48.2829 47.3743 48.2861 46.8535C48.2926 46.3294 48.2959 45.7809 48.2959 45.208C48.2959 45.0713 48.3024 44.9476 48.3154 44.8369C48.3317 44.7262 48.3594 44.6318 48.3984 44.5537C48.4375 44.4756 48.4896 44.417 48.5547 44.3779C48.623 44.3356 48.7093 44.3145 48.8135 44.3145C49.0511 44.3145 49.2188 44.3844 49.3164 44.5244C49.4141 44.6611 49.4629 44.8483 49.4629 45.0859C49.4629 45.1543 49.4613 45.2275 49.458 45.3057C49.4548 45.3838 49.4515 45.4766 49.4482 45.584C49.445 45.6914 49.4401 45.8216 49.4336 45.9746C49.4303 46.1276 49.4271 46.3115 49.4238 46.5264C49.4206 46.7412 49.4173 46.9951 49.4141 47.2881C49.4108 47.5811 49.4092 47.9229 49.4092 48.3135C49.4092 48.5479 49.4157 48.7806 49.4287 49.0117C49.445 49.2396 49.4743 49.4577 49.5166 49.666C49.5622 49.8711 49.6257 50.0615 49.707 50.2373C49.7884 50.4131 49.8926 50.5661 50.0195 50.6963C50.1497 50.8232 50.3076 50.9225 50.4932 50.9941C50.682 51.0658 50.9049 51.1016 51.1621 51.1016C51.4583 51.1016 51.709 51.0413 51.9141 50.9209C52.1191 50.8005 52.2852 50.6247 52.4121 50.3936C52.5423 50.1624 52.6351 49.8776 52.6904 49.5391C52.749 49.1973 52.7783 48.8066 52.7783 48.3672C52.7783 47.5762 52.7718 46.9072 52.7588 46.3604C52.7458 45.8135 52.736 45.418 52.7295 45.1738C52.7262 45.125 52.7246 45.0745 52.7246 45.0225C52.7246 44.9704 52.7246 44.9395 52.7246 44.9297C52.7246 44.6986 52.7751 44.5391 52.876 44.4512C52.9801 44.36 53.1185 44.3145 53.291 44.3145C53.4017 44.3145 53.4945 44.3307 53.5693 44.3633C53.6475 44.3958 53.7093 44.4382 53.7549 44.4902C53.8005 44.5423 53.833 44.6009 53.8525 44.666C53.8721 44.7311 53.8818 44.7946 53.8818 44.8564C53.8818 44.9639 53.877 45.0745 53.8672 45.1885C53.8607 45.2992 53.8574 45.4147 53.8574 45.5352C53.8574 45.7956 53.859 46.0365 53.8623 46.2578C53.8656 46.4792 53.8704 46.6908 53.877 46.8926C53.877 47.127 53.8802 47.3646 53.8867 47.6055C53.8932 47.8431 53.8965 48.1003 53.8965 48.377C53.8965 48.9727 53.8395 49.5049 53.7256 49.9736C53.6149 50.4391 53.444 50.833 53.2129 51.1553C52.9818 51.4775 52.6904 51.7233 52.3389 51.8926C51.9906 52.0618 51.5804 52.1465 51.1084 52.1465C50.8708 52.1465 50.6364 52.1237 50.4053 52.0781C50.1742 52.0358 49.9544 51.9609 49.7461 51.8535C49.5378 51.7461 49.3441 51.6012 49.165 51.4189C48.9893 51.2367 48.8363 51.0072 48.7061 50.7305C48.5758 50.4538 48.4733 50.125 48.3984 49.7441C48.3236 49.3633 48.2861 48.9189 48.2861 48.4111ZM55.5762 50.2471C55.5924 49.9834 55.6462 49.7832 55.7373 49.6465C55.8317 49.5065 55.9961 49.4365 56.2305 49.4365C56.377 49.4365 56.5023 49.4788 56.6064 49.5635C56.7106 49.6449 56.7627 49.7588 56.7627 49.9053C56.7627 49.9899 56.7546 50.0745 56.7383 50.1592C56.722 50.2438 56.7171 50.3317 56.7236 50.4229C56.7367 50.5335 56.7855 50.6344 56.8701 50.7256C56.9548 50.8167 57.0622 50.8965 57.1924 50.9648C57.3226 51.0299 57.4707 51.082 57.6367 51.1211C57.8027 51.1569 57.972 51.1748 58.1445 51.1748C58.3203 51.1748 58.4945 51.1602 58.667 51.1309C58.8428 51.0983 59.0007 51.0397 59.1406 50.9551C59.2839 50.8704 59.3994 50.7549 59.4873 50.6084C59.5752 50.4619 59.6191 50.2715 59.6191 50.0371C59.6191 49.8841 59.5817 49.7409 59.5068 49.6074C59.432 49.4707 59.3359 49.347 59.2188 49.2363C59.1016 49.1224 58.9714 49.0199 58.8281 48.9287C58.6882 48.8376 58.5531 48.7578 58.4229 48.6895C58.2373 48.5951 58.0469 48.5039 57.8516 48.416C57.6595 48.3249 57.4707 48.2305 57.2852 48.1328C57.1029 48.0319 56.9287 47.9229 56.7627 47.8057C56.5999 47.6852 56.4567 47.5452 56.333 47.3857C56.2093 47.2262 56.1117 47.0423 56.04 46.834C55.9684 46.6224 55.9326 46.3783 55.9326 46.1016C55.9326 45.7923 55.9977 45.5254 56.1279 45.3008C56.2614 45.0762 56.4355 44.8906 56.6504 44.7441C56.8652 44.5977 57.111 44.4902 57.3877 44.4219C57.6676 44.3503 57.9541 44.3145 58.2471 44.3145C58.5075 44.3145 58.7598 44.3372 59.0039 44.3828C59.248 44.4284 59.4661 44.5033 59.6582 44.6074C59.8503 44.7083 60.0098 44.8451 60.1367 45.0176C60.2637 45.1868 60.3402 45.3952 60.3662 45.6426C60.3727 45.7337 60.3613 45.8151 60.332 45.8867C60.3027 45.9551 60.262 46.0137 60.21 46.0625C60.1579 46.1081 60.0977 46.1439 60.0293 46.1699C59.9642 46.1927 59.8975 46.2041 59.8291 46.2041C59.7249 46.2041 59.637 46.1878 59.5654 46.1553C59.4938 46.1227 59.4352 46.082 59.3896 46.0332C59.3441 45.9844 59.3099 45.929 59.2871 45.8672C59.2643 45.8053 59.2497 45.7451 59.2432 45.6865C59.1943 45.6084 59.1309 45.5449 59.0527 45.4961C58.9746 45.444 58.8867 45.4033 58.7891 45.374C58.6947 45.3415 58.5954 45.3203 58.4912 45.3105C58.387 45.2975 58.2861 45.291 58.1885 45.291C58.0518 45.291 57.915 45.3057 57.7783 45.335C57.6449 45.3643 57.5228 45.4115 57.4121 45.4766C57.3014 45.5417 57.2119 45.6247 57.1436 45.7256C57.0752 45.8265 57.041 45.9502 57.041 46.0967C57.041 46.2692 57.0817 46.4222 57.1631 46.5557C57.2445 46.6891 57.347 46.8079 57.4707 46.9121C57.5944 47.0163 57.7311 47.1107 57.8809 47.1953C58.0339 47.2799 58.182 47.3581 58.3252 47.4297C58.4977 47.5176 58.6768 47.612 58.8623 47.7129C59.0479 47.8105 59.2285 47.918 59.4043 48.0352C59.5833 48.1491 59.7526 48.2744 59.9121 48.4111C60.0716 48.5479 60.2116 48.7008 60.332 48.8701C60.4525 49.0361 60.5469 49.2184 60.6152 49.417C60.6868 49.6156 60.7227 49.8353 60.7227 50.0762C60.7227 50.3333 60.6868 50.5628 60.6152 50.7646C60.5436 50.9665 60.446 51.1439 60.3223 51.2969C60.1986 51.4499 60.0537 51.5801 59.8877 51.6875C59.7217 51.7949 59.5426 51.8828 59.3506 51.9512C59.1585 52.0195 58.9583 52.0684 58.75 52.0977C58.5449 52.1302 58.3398 52.1465 58.1348 52.1465C57.9622 52.1465 57.7767 52.1318 57.5781 52.1025C57.3828 52.0732 57.1891 52.0277 56.9971 51.9658C56.805 51.9007 56.6211 51.8193 56.4453 51.7217C56.2728 51.6208 56.1198 51.5003 55.9863 51.3604C55.8561 51.2171 55.7536 51.0544 55.6787 50.8721C55.6038 50.6865 55.5697 50.4782 55.5762 50.2471ZM69.9463 51.6875C69.9463 51.5508 69.9561 51.4352 69.9756 51.3408C69.9951 51.2464 70.0065 51.2025 70.0098 51.209C70.0163 50.8542 70.0212 50.4945 70.0244 50.1299C70.0309 49.7653 70.0342 49.3796 70.0342 48.9727C70.0342 48.7155 70.0342 48.4372 70.0342 48.1377C70.0342 47.835 70.0309 47.5306 70.0244 47.2246C70.0212 46.9154 70.0146 46.6126 70.0049 46.3164C69.9951 46.0169 69.9821 45.7402 69.9658 45.4863C69.9528 45.4115 69.943 45.3447 69.9365 45.2861C69.93 45.2243 69.9268 45.1592 69.9268 45.0908C69.9268 44.9313 69.9609 44.806 70.0293 44.7148C70.0977 44.6204 70.2083 44.5553 70.3613 44.5195C70.4264 44.4642 70.498 44.4268 70.5762 44.4072C70.6576 44.3844 70.7357 44.373 70.8105 44.373C70.8887 44.373 70.9587 44.3958 71.0205 44.4414C71.0856 44.487 71.1426 44.5407 71.1914 44.6025C71.2402 44.6644 71.2809 44.7295 71.3135 44.7979C71.346 44.863 71.3688 44.9167 71.3818 44.959C71.4827 45.1087 71.6032 45.2796 71.7432 45.4717C71.8864 45.6637 72.041 45.8704 72.207 46.0918C72.3763 46.3099 72.5553 46.5394 72.7441 46.7803C72.9329 47.0179 73.1234 47.2588 73.3154 47.5029C73.5107 47.7471 73.7044 47.9912 73.8965 48.2354C74.0885 48.4762 74.2708 48.709 74.4434 48.9336C74.6159 49.1582 74.777 49.3714 74.9268 49.5732C75.0765 49.7718 75.2051 49.9508 75.3125 50.1104C75.3125 49.4137 75.3092 48.8148 75.3027 48.3135C75.2995 47.8089 75.2946 47.3809 75.2881 47.0293C75.2816 46.6745 75.2734 46.3831 75.2637 46.1553C75.2539 45.9274 75.2458 45.7386 75.2393 45.5889C75.2327 45.4391 75.2262 45.3171 75.2197 45.2227C75.2165 45.125 75.2148 45.0322 75.2148 44.9443C75.2148 44.8141 75.2279 44.7083 75.2539 44.627C75.2832 44.5423 75.3223 44.4772 75.3711 44.4316C75.4232 44.3861 75.4867 44.3551 75.5615 44.3389C75.6364 44.3226 75.7227 44.3145 75.8203 44.3145C75.9473 44.3145 76.0465 44.3405 76.1182 44.3926C76.1898 44.4447 76.2435 44.5114 76.2793 44.5928C76.3184 44.6709 76.3411 44.7604 76.3477 44.8613C76.3574 44.959 76.3623 45.055 76.3623 45.1494V50.75C76.3623 50.8672 76.3688 50.986 76.3818 51.1064C76.3949 51.2236 76.4014 51.349 76.4014 51.4824C76.4014 51.6094 76.3916 51.7152 76.3721 51.7998C76.3525 51.8812 76.32 51.9479 76.2744 52C76.2321 52.0521 76.1751 52.0879 76.1035 52.1074C76.0352 52.1302 75.9521 52.1416 75.8545 52.1416C75.6722 52.1416 75.5257 52.096 75.415 52.0049C75.3076 51.9137 75.2311 51.8031 75.1855 51.6729C74.8763 51.2497 74.5622 50.833 74.2432 50.4229C73.9274 50.0094 73.6084 49.5977 73.2861 49.1875C72.9639 48.7741 72.64 48.359 72.3145 47.9424C71.9889 47.5225 71.665 47.096 71.3428 46.6631L71.0498 46.2041C71.0531 46.7021 71.0563 47.1465 71.0596 47.5371C71.0628 47.9245 71.0661 48.2712 71.0693 48.5771C71.0726 48.8799 71.0758 49.1484 71.0791 49.3828C71.0824 49.6139 71.084 49.8223 71.084 50.0078C71.0872 50.1901 71.0889 50.3577 71.0889 50.5107C71.0921 50.6605 71.0938 50.807 71.0938 50.9502C71.097 51.0348 71.1019 51.126 71.1084 51.2236C71.1182 51.318 71.123 51.4108 71.123 51.502C71.123 51.5866 71.1149 51.668 71.0986 51.7461C71.0856 51.8242 71.0579 51.8926 71.0156 51.9512C70.9733 52.0098 70.9131 52.0553 70.835 52.0879C70.7601 52.1237 70.6608 52.1416 70.5371 52.1416C70.3711 52.1416 70.2311 52.1009 70.1172 52.0195C70.0033 51.9382 69.9463 51.8275 69.9463 51.6875ZM78.125 50.2471C78.1413 49.9834 78.195 49.7832 78.2861 49.6465C78.3805 49.5065 78.5449 49.4365 78.7793 49.4365C78.9258 49.4365 79.0511 49.4788 79.1553 49.5635C79.2594 49.6449 79.3115 49.7588 79.3115 49.9053C79.3115 49.9899 79.3034 50.0745 79.2871 50.1592C79.2708 50.2438 79.266 50.3317 79.2725 50.4229C79.2855 50.5335 79.3343 50.6344 79.4189 50.7256C79.5036 50.8167 79.611 50.8965 79.7412 50.9648C79.8714 51.0299 80.0195 51.082 80.1855 51.1211C80.3516 51.1569 80.5208 51.1748 80.6934 51.1748C80.8691 51.1748 81.0433 51.1602 81.2158 51.1309C81.3916 51.0983 81.5495 51.0397 81.6895 50.9551C81.8327 50.8704 81.9482 50.7549 82.0361 50.6084C82.124 50.4619 82.168 50.2715 82.168 50.0371C82.168 49.8841 82.1305 49.7409 82.0557 49.6074C81.9808 49.4707 81.8848 49.347 81.7676 49.2363C81.6504 49.1224 81.5202 49.0199 81.377 48.9287C81.237 48.8376 81.1019 48.7578 80.9717 48.6895C80.7861 48.5951 80.5957 48.5039 80.4004 48.416C80.2083 48.3249 80.0195 48.2305 79.834 48.1328C79.6517 48.0319 79.4775 47.9229 79.3115 47.8057C79.1488 47.6852 79.0055 47.5452 78.8818 47.3857C78.7581 47.2262 78.6605 47.0423 78.5889 46.834C78.5173 46.6224 78.4814 46.3783 78.4814 46.1016C78.4814 45.7923 78.5465 45.5254 78.6768 45.3008C78.8102 45.0762 78.9844 44.8906 79.1992 44.7441C79.4141 44.5977 79.6598 44.4902 79.9365 44.4219C80.2165 44.3503 80.5029 44.3145 80.7959 44.3145C81.0563 44.3145 81.3086 44.3372 81.5527 44.3828C81.7969 44.4284 82.015 44.5033 82.207 44.6074C82.3991 44.7083 82.5586 44.8451 82.6855 45.0176C82.8125 45.1868 82.889 45.3952 82.915 45.6426C82.9215 45.7337 82.9102 45.8151 82.8809 45.8867C82.8516 45.9551 82.8109 46.0137 82.7588 46.0625C82.7067 46.1081 82.6465 46.1439 82.5781 46.1699C82.513 46.1927 82.4463 46.2041 82.3779 46.2041C82.2738 46.2041 82.1859 46.1878 82.1143 46.1553C82.0426 46.1227 81.984 46.082 81.9385 46.0332C81.8929 45.9844 81.8587 45.929 81.8359 45.8672C81.8132 45.8053 81.7985 45.7451 81.792 45.6865C81.7432 45.6084 81.6797 45.5449 81.6016 45.4961C81.5234 45.444 81.4355 45.4033 81.3379 45.374C81.2435 45.3415 81.1442 45.3203 81.04 45.3105C80.9359 45.2975 80.835 45.291 80.7373 45.291C80.6006 45.291 80.4639 45.3057 80.3271 45.335C80.1937 45.3643 80.0716 45.4115 79.9609 45.4766C79.8503 45.5417 79.7607 45.6247 79.6924 45.7256C79.624 45.8265 79.5898 45.9502 79.5898 46.0967C79.5898 46.2692 79.6305 46.4222 79.7119 46.5557C79.7933 46.6891 79.8958 46.8079 80.0195 46.9121C80.1432 47.0163 80.2799 47.1107 80.4297 47.1953C80.5827 47.2799 80.7308 47.3581 80.874 47.4297C81.0465 47.5176 81.2256 47.612 81.4111 47.7129C81.5967 47.8105 81.7773 47.918 81.9531 48.0352C82.1322 48.1491 82.3014 48.2744 82.4609 48.4111C82.6204 48.5479 82.7604 48.7008 82.8809 48.8701C83.0013 49.0361 83.0957 49.2184 83.1641 49.417C83.2357 49.6156 83.2715 49.8353 83.2715 50.0762C83.2715 50.3333 83.2357 50.5628 83.1641 50.7646C83.0924 50.9665 82.9948 51.1439 82.8711 51.2969C82.7474 51.4499 82.6025 51.5801 82.4365 51.6875C82.2705 51.7949 82.0915 51.8828 81.8994 51.9512C81.7074 52.0195 81.5072 52.0684 81.2988 52.0977C81.0938 52.1302 80.8887 52.1465 80.6836 52.1465C80.5111 52.1465 80.3255 52.1318 80.127 52.1025C79.9316 52.0732 79.738 52.0277 79.5459 51.9658C79.3538 51.9007 79.1699 51.8193 78.9941 51.7217C78.8216 51.6208 78.6686 51.5003 78.5352 51.3604C78.4049 51.2171 78.3024 51.0544 78.2275 50.8721C78.1527 50.6865 78.1185 50.4782 78.125 50.2471ZM85.3174 51.6094C85.3174 51.4434 85.3288 51.2806 85.3516 51.1211C85.3776 50.9583 85.3906 50.7858 85.3906 50.6035C85.3906 49.7734 85.3825 48.9385 85.3662 48.0986C85.3532 47.2588 85.3467 46.3962 85.3467 45.5107C85.3467 45.4196 85.3369 45.3285 85.3174 45.2373C85.2979 45.1429 85.2881 45.042 85.2881 44.9346C85.2881 44.8499 85.2995 44.7702 85.3223 44.6953C85.3451 44.6204 85.3841 44.5553 85.4395 44.5C85.4948 44.4414 85.5713 44.3958 85.6689 44.3633C85.7666 44.3307 85.8887 44.3145 86.0352 44.3145C86.1816 44.3145 86.2972 44.3698 86.3818 44.4805C86.4665 44.5911 86.5088 44.7393 86.5088 44.9248C86.5088 44.9801 86.5039 45.0355 86.4941 45.0908C86.4844 45.1429 86.4746 45.1982 86.4648 45.2568C86.4583 45.5368 86.4535 45.8379 86.4502 46.1602C86.4469 46.4824 86.4453 46.8519 86.4453 47.2686C86.4453 47.6396 86.4469 48.0189 86.4502 48.4062C86.4535 48.7936 86.4583 49.1663 86.4648 49.5244C86.4714 49.8825 86.4795 50.2178 86.4893 50.5303C86.5023 50.8395 86.5169 51.1064 86.5332 51.3311V51.3262C86.5397 51.375 86.5446 51.4222 86.5479 51.4678C86.5544 51.5101 86.5576 51.554 86.5576 51.5996C86.5576 51.6777 86.5479 51.751 86.5283 51.8193C86.512 51.8844 86.4827 51.9414 86.4404 51.9902C86.3981 52.0391 86.3395 52.0765 86.2646 52.1025C86.1898 52.1286 86.097 52.1416 85.9863 52.1416C85.8561 52.1416 85.7471 52.1302 85.6592 52.1074C85.5745 52.0846 85.5062 52.0505 85.4541 52.0049C85.4053 51.9593 85.3695 51.904 85.3467 51.8389C85.3271 51.7705 85.3174 51.694 85.3174 51.6094ZM88.9795 51.4287C88.9795 51.279 88.986 51.1325 88.999 50.9893C89.012 50.846 89.0186 50.6784 89.0186 50.4863C89.0186 49.6204 89.0153 48.7529 89.0088 47.8838C89.0055 47.0146 88.9909 46.1357 88.9648 45.2471C88.929 45.1787 88.8965 45.1038 88.8672 45.0225C88.8411 44.9411 88.8281 44.8711 88.8281 44.8125C88.8281 44.6725 88.8656 44.5553 88.9404 44.4609C89.0186 44.3633 89.1504 44.3145 89.3359 44.3145C89.4303 44.3145 89.5231 44.3275 89.6143 44.3535C89.7054 44.3763 89.8031 44.3877 89.9072 44.3877C90.1351 44.3877 90.3613 44.3763 90.5859 44.3535C90.8105 44.3275 91.04 44.3145 91.2744 44.3145C91.7529 44.3145 92.181 44.3617 92.5586 44.4561C92.9395 44.5472 93.2731 44.6758 93.5596 44.8418C93.846 45.0046 94.0902 45.1999 94.292 45.4277C94.4938 45.6523 94.6566 45.8997 94.7803 46.1699C94.9072 46.4368 95 46.7217 95.0586 47.0244C95.1172 47.3239 95.1465 47.6283 95.1465 47.9375C95.1465 48.2142 95.1172 48.5104 95.0586 48.8262C95.0033 49.1387 94.9105 49.4495 94.7803 49.7588C94.6501 50.0648 94.4808 50.3594 94.2725 50.6426C94.0641 50.9225 93.807 51.1699 93.501 51.3848C93.195 51.5996 92.8369 51.7721 92.4268 51.9023C92.0199 52.0293 91.5527 52.0928 91.0254 52.0928C90.9017 52.0928 90.778 52.0863 90.6543 52.0732C90.5339 52.0635 90.4118 52.0505 90.2881 52.0342C90.1644 52.0212 90.0391 52.0098 89.9121 52C89.7884 51.987 89.6615 51.9805 89.5312 51.9805C89.3327 51.9805 89.1911 51.9349 89.1064 51.8438C89.0218 51.7526 88.9795 51.6143 88.9795 51.4287ZM90.0684 50.9258C90.1367 50.9453 90.2181 50.9616 90.3125 50.9746C90.4102 50.9844 90.5078 50.9925 90.6055 50.999C90.7031 51.0055 90.7943 51.0104 90.8789 51.0137C90.9668 51.0137 91.0352 51.0137 91.084 51.0137C91.4876 51.0137 91.8408 50.9632 92.1436 50.8623C92.4463 50.7614 92.7051 50.6296 92.9199 50.4668C93.138 50.304 93.3187 50.1201 93.4619 49.915C93.6051 49.71 93.7174 49.5033 93.7988 49.2949C93.8835 49.0866 93.9421 48.8864 93.9746 48.6943C94.0072 48.5023 94.0234 48.3379 94.0234 48.2012C94.0234 47.6608 93.9583 47.2116 93.8281 46.8535C93.7012 46.4922 93.5124 46.2041 93.2617 45.9893C93.0143 45.7744 92.7083 45.623 92.3438 45.5352C91.9824 45.4473 91.5658 45.4033 91.0938 45.4033C91.0319 45.4033 90.9554 45.4049 90.8643 45.4082C90.7764 45.4115 90.6836 45.4147 90.5859 45.418C90.4883 45.4212 90.3906 45.4261 90.293 45.4326C90.1986 45.4391 90.1139 45.444 90.0391 45.4473L90.0684 50.9258ZM96.7969 51.4482C96.7969 51.3929 96.8034 51.3343 96.8164 51.2725C96.8327 51.2106 96.849 51.1536 96.8652 51.1016L96.9092 50.9453L96.7969 45.1055C96.7969 44.946 96.8148 44.8223 96.8506 44.7344C96.8896 44.6465 96.9385 44.5814 96.9971 44.5391C97.0557 44.4967 97.1224 44.4723 97.1973 44.4658C97.2754 44.4593 97.3535 44.4561 97.4316 44.4561H100.005C100.063 44.4495 100.129 44.4414 100.2 44.4316C100.275 44.4186 100.327 44.4121 100.356 44.4121C100.48 44.4121 100.579 44.4235 100.654 44.4463C100.732 44.4691 100.793 44.5033 100.835 44.5488C100.881 44.5911 100.91 44.6449 100.923 44.71C100.939 44.7751 100.947 44.8516 100.947 44.9395C100.947 45.0632 100.931 45.1624 100.898 45.2373C100.869 45.3122 100.827 45.3708 100.771 45.4131C100.719 45.4521 100.658 45.4782 100.586 45.4912C100.514 45.5042 100.438 45.5107 100.356 45.5107C100.321 45.5107 100.273 45.5107 100.215 45.5107C100.156 45.5075 100.094 45.5026 100.029 45.4961C99.7135 45.4961 99.458 45.4961 99.2627 45.4961C99.0706 45.4961 98.916 45.4977 98.7988 45.501C98.6849 45.501 98.597 45.501 98.5352 45.501C98.4766 45.501 98.4245 45.501 98.3789 45.501H97.9248V47.0488C97.9443 47.0488 97.9671 47.0505 97.9932 47.0537C98.0225 47.0537 98.0664 47.0537 98.125 47.0537C98.1836 47.0537 98.2633 47.0537 98.3643 47.0537C98.4684 47.0537 98.6068 47.0537 98.7793 47.0537C98.9518 47.0537 99.165 47.0537 99.4189 47.0537C99.6729 47.0537 99.9805 47.0537 100.342 47.0537C100.378 47.0537 100.418 47.0521 100.464 47.0488C100.509 47.0456 100.555 47.0407 100.601 47.0342C100.659 47.0277 100.728 47.0212 100.806 47.0146C100.884 47.0081 100.968 47.0049 101.06 47.0049C101.147 47.0049 101.226 47.0228 101.294 47.0586C101.362 47.0944 101.419 47.14 101.465 47.1953C101.514 47.2474 101.549 47.3044 101.572 47.3662C101.598 47.4281 101.611 47.4867 101.611 47.542C101.611 47.7178 101.553 47.8464 101.436 47.9277C101.322 48.0091 101.174 48.0498 100.991 48.0498L97.9248 48.0547V50.9795C98.2471 50.9795 98.571 50.9844 98.8965 50.9941C99.222 51.0039 99.5622 51.0088 99.917 51.0088C100.015 51.0088 100.104 51.0039 100.186 50.9941C100.267 50.9844 100.345 50.973 100.42 50.96C100.488 50.9502 100.557 50.9421 100.625 50.9355C100.697 50.9258 100.775 50.9209 100.859 50.9209C100.957 50.9209 101.047 50.929 101.128 50.9453C101.213 50.9583 101.286 50.9844 101.348 51.0234C101.41 51.0592 101.458 51.1097 101.494 51.1748C101.53 51.2367 101.548 51.3164 101.548 51.4141C101.548 51.5573 101.523 51.668 101.475 51.7461C101.426 51.8242 101.359 51.8828 101.274 51.9219C101.193 51.9577 101.099 51.9805 100.991 51.9902C100.887 51.9967 100.778 52 100.664 52H97.3779C97.2933 52 97.2152 51.9902 97.1436 51.9707C97.0752 51.9512 97.015 51.9202 96.9629 51.8779C96.9108 51.8324 96.8701 51.7754 96.8408 51.707C96.8115 51.6354 96.7969 51.5492 96.7969 51.4482Z" fill="#D9D9D9"/>
<rect x="65" y="39" width="2" height="14" rx="1" fill="#D9D9D9"/>
<rect y="39" width="2" height="14" rx="1" fill="#D9D9D9"/>
<circle cx="22" cy="22" r="21.9" fill="white" stroke="#D9D9D9" stroke-width="0.2"/>
<rect x="13.4091" y="11.3125" width="20.476" height="21.9254" rx="8" transform="rotate(16.9967 13.4091 11.3125)" fill="#7E53C8"/>
<rect width="20.476" height="21.9254" rx="8" transform="matrix(-0.956322 0.292316 0.292316 0.956322 31.0317 12.0312)" fill="#7E53C8"/>
<path fill-rule="evenodd" clip-rule="evenodd" d="M21.9091 3C18.523 3 15.778 5.74502 15.778 9.13116V17.7869C15.778 21.173 18.523 23.9181 21.9091 23.9181C25.2953 23.9181 28.0403 21.173 28.0403 17.7869V9.13115C28.0403 5.74501 25.2953 3 21.9091 3ZM21.9091 4.19531C19.718 4.19531 17.9418 5.9715 17.9418 8.16253V18.7555C17.9418 20.9466 19.718 22.7227 21.9091 22.7227C24.1001 22.7227 25.8763 20.9466 25.8763 18.7555V8.16253C25.8763 5.9715 24.1001 4.19531 21.9091 4.19531Z" fill="#7E53C8"/>
<rect x="11.2287" y="10.7109" width="21.3607" height="27.8525" rx="7.5" fill="#7E53C8" stroke="white"/>
<rect x="11.2287" y="10.7109" width="21.3607" height="14.1476" rx="7.07378" fill="#7E53C8" stroke="white"/>
<path d="M17.0984 22.832C17.0984 22.2344 17.5829 21.75 18.1804 21.75V21.75C18.778 21.75 19.2624 22.2344 19.2624 22.832V30.7664C19.2624 31.364 18.778 31.8484 18.1804 31.8484V31.8484C17.5829 31.8484 17.0984 31.364 17.0984 30.7664V22.832Z" fill="black"/>
<path d="M24.3115 22.832C24.3115 22.2344 24.7959 21.75 25.3935 21.75V21.75C25.991 21.75 26.4755 22.2344 26.4755 22.832V30.7664C26.4755 31.364 25.991 31.8484 25.3935 31.8484V31.8484C24.7959 31.8484 24.3115 31.364 24.3115 30.7664V22.832Z" fill="black"/>
</svg>
